<mxfile host="app.diagrams.net" agent="Mozilla/5.0 (Windows NT 10.0; Win64; x64) AppleWebKit/537.36 (KHTML, like Gecko) Chrome/141.0.0.0 Safari/537.36" version="28.2.7">
  <diagram name="Page-1" id="i5VKzDL9VIoU35kPbGSs">
    <mxGraphModel dx="1722" dy="934" grid="1" gridSize="10" guides="1" tooltips="1" connect="1" arrows="1" fold="1" page="1" pageScale="1" pageWidth="850" pageHeight="1100" math="0" shadow="0">
      <root>
        <mxCell id="0" />
        <mxCell id="1" parent="0" />
        <mxCell id="1NNlO9BBZ_LvHmM51Dco-16" value="" style="group" parent="1" vertex="1" connectable="0">
          <mxGeometry x="950" y="320" width="250" height="110" as="geometry" />
        </mxCell>
        <mxCell id="1NNlO9BBZ_LvHmM51Dco-3" value="" style="rounded=0;whiteSpace=wrap;html=1;fillColor=#f8cecc;strokeColor=#b85450;" parent="1NNlO9BBZ_LvHmM51Dco-16" vertex="1">
          <mxGeometry width="240" height="110" as="geometry" />
        </mxCell>
        <mxCell id="1NNlO9BBZ_LvHmM51Dco-5" value="" style="shape=image;verticalLabelPosition=bottom;labelBackgroundColor=default;verticalAlign=top;aspect=fixed;imageAspect=0;image=https://upload.wikimedia.org/wikipedia/en/c/cb/Raspberry_Pi_Logo.svg;" parent="1NNlO9BBZ_LvHmM51Dco-16" vertex="1">
          <mxGeometry x="10" y="30" width="46.98" height="60" as="geometry" />
        </mxCell>
        <mxCell id="1NNlO9BBZ_LvHmM51Dco-6" value="&lt;div&gt;&lt;b&gt;NUT Server&lt;/b&gt;&lt;/div&gt;Raspberry Pi 4 model B (4gb)&lt;div&gt;Raspberry Pi OS Bookworm 12&lt;/div&gt;&lt;div style=&quot;&quot;&gt;192.168.1.92&lt;/div&gt;&lt;div style=&quot;&quot;&gt;&lt;span style=&quot;background-color: transparent; color: light-dark(rgb(0, 0, 0), rgb(255, 255, 255));&quot;&gt;Ethernet&lt;/span&gt;&lt;/div&gt;" style="text;html=1;align=left;verticalAlign=middle;whiteSpace=wrap;rounded=0;" parent="1NNlO9BBZ_LvHmM51Dco-16" vertex="1">
          <mxGeometry x="70" y="50" width="180" height="20" as="geometry" />
        </mxCell>
        <mxCell id="uaDNKYk8u-UNjfNYOpH2-34" value="" style="shape=image;verticalLabelPosition=bottom;labelBackgroundColor=default;verticalAlign=top;aspect=fixed;imageAspect=0;image=https://networkupstools.org/images/nut-logo.png;" parent="1NNlO9BBZ_LvHmM51Dco-16" vertex="1">
          <mxGeometry x="211.87" y="2.5" width="20.93" height="22.5" as="geometry" />
        </mxCell>
        <mxCell id="1NNlO9BBZ_LvHmM51Dco-17" value="" style="group" parent="1" vertex="1" connectable="0">
          <mxGeometry x="1230" y="320" width="250" height="110" as="geometry" />
        </mxCell>
        <mxCell id="uaDNKYk8u-UNjfNYOpH2-39" value="" style="rounded=0;whiteSpace=wrap;html=1;fillColor=#f8cecc;strokeColor=#b85450;" parent="1NNlO9BBZ_LvHmM51Dco-17" vertex="1">
          <mxGeometry width="240" height="110" as="geometry" />
        </mxCell>
        <mxCell id="uaDNKYk8u-UNjfNYOpH2-37" value="" style="shape=image;verticalLabelPosition=bottom;labelBackgroundColor=default;verticalAlign=top;aspect=fixed;imageAspect=0;image=https://upload.wikimedia.org/wikipedia/en/1/15/Pi-hole_vector_logo.svg;" parent="1NNlO9BBZ_LvHmM51Dco-17" vertex="1">
          <mxGeometry x="212.42999999999995" width="20.37" height="30" as="geometry" />
        </mxCell>
        <mxCell id="uaDNKYk8u-UNjfNYOpH2-42" value="" style="shape=image;verticalLabelPosition=bottom;labelBackgroundColor=default;verticalAlign=top;aspect=fixed;imageAspect=0;image=https://upload.wikimedia.org/wikipedia/en/c/cb/Raspberry_Pi_Logo.svg;" parent="1NNlO9BBZ_LvHmM51Dco-17" vertex="1">
          <mxGeometry x="10" y="30" width="46.98" height="60" as="geometry" />
        </mxCell>
        <mxCell id="1NNlO9BBZ_LvHmM51Dco-1" value="&lt;div&gt;&lt;b&gt;Pi-hole (ad blocking)&lt;/b&gt;&lt;/div&gt;Raspberry Pi 4 model B (4gb)&lt;div&gt;Raspberry Pi OS Bookworm 12&lt;/div&gt;&lt;div style=&quot;&quot;&gt;192.168.1.91&lt;/div&gt;&lt;div style=&quot;&quot;&gt;Ethernet&lt;/div&gt;" style="text;html=1;align=left;verticalAlign=middle;whiteSpace=wrap;rounded=0;" parent="1NNlO9BBZ_LvHmM51Dco-17" vertex="1">
          <mxGeometry x="70" y="50" width="180" height="20" as="geometry" />
        </mxCell>
        <mxCell id="1NNlO9BBZ_LvHmM51Dco-31" value="" style="group" parent="1" vertex="1" connectable="0">
          <mxGeometry x="1510" y="510" width="250" height="110" as="geometry" />
        </mxCell>
        <mxCell id="1NNlO9BBZ_LvHmM51Dco-29" value="" style="rounded=0;whiteSpace=wrap;html=1;fillColor=#d5e8d4;strokeColor=#82b366;" parent="1NNlO9BBZ_LvHmM51Dco-31" vertex="1">
          <mxGeometry width="250.00000000000003" height="110.00000000000001" as="geometry" />
        </mxCell>
        <mxCell id="1NNlO9BBZ_LvHmM51Dco-26" value="" style="image;points=[];aspect=fixed;html=1;align=center;shadow=0;dashed=0;image=img/lib/allied_telesis/computer_and_terminals/Server_Desktop.svg;" parent="1NNlO9BBZ_LvHmM51Dco-31" vertex="1">
          <mxGeometry x="20.833333333333336" y="24.444444444444446" width="42.599999999999994" height="54" as="geometry" />
        </mxCell>
        <mxCell id="1NNlO9BBZ_LvHmM51Dco-28" value="&lt;div&gt;&lt;b&gt;Citadel (NAS)&lt;/b&gt;&lt;/div&gt;&lt;div&gt;Intel i5-2500K 5.9ghz (32gb)&lt;br&gt;&lt;div&gt;&lt;div style=&quot;&quot;&gt;&lt;span style=&quot;background-color: transparent; color: light-dark(rgb(0, 0, 0), rgb(255, 255, 255));&quot;&gt;Ubuntu Server 24.04.1&lt;/span&gt;&lt;/div&gt;&lt;div style=&quot;&quot;&gt;&lt;span style=&quot;background-color: transparent; color: light-dark(rgb(0, 0, 0), rgb(255, 255, 255));&quot;&gt;192.168.1.205&lt;/span&gt;&lt;/div&gt;&lt;div style=&quot;&quot;&gt;&lt;span style=&quot;background-color: transparent; color: light-dark(rgb(0, 0, 0), rgb(255, 255, 255));&quot;&gt;Ethernet&lt;/span&gt;&lt;/div&gt;&lt;/div&gt;&lt;/div&gt;" style="text;html=1;align=left;verticalAlign=middle;whiteSpace=wrap;rounded=0;" parent="1NNlO9BBZ_LvHmM51Dco-31" vertex="1">
          <mxGeometry x="72.91666666666667" y="42.77777777777778" width="177.08333333333334" height="36.66666666666667" as="geometry" />
        </mxCell>
        <mxCell id="1NNlO9BBZ_LvHmM51Dco-30" value="" style="shape=image;html=1;verticalAlign=top;verticalLabelPosition=bottom;labelBackgroundColor=#ffffff;imageAspect=0;aspect=fixed;image=https://icons.diagrams.net/icon-cache1/Operating_System__Flat_-2035/ubuntu-750.svg" parent="1NNlO9BBZ_LvHmM51Dco-31" vertex="1">
          <mxGeometry width="30" height="30" as="geometry" />
        </mxCell>
        <mxCell id="1NNlO9BBZ_LvHmM51Dco-32" value="" style="group" parent="1" vertex="1" connectable="0">
          <mxGeometry x="670" y="510" width="250" height="110" as="geometry" />
        </mxCell>
        <mxCell id="1NNlO9BBZ_LvHmM51Dco-33" value="" style="rounded=0;whiteSpace=wrap;html=1;fillColor=#d5e8d4;strokeColor=#82b366;" parent="1NNlO9BBZ_LvHmM51Dco-32" vertex="1">
          <mxGeometry width="250.00000000000003" height="110.00000000000001" as="geometry" />
        </mxCell>
        <mxCell id="1NNlO9BBZ_LvHmM51Dco-34" value="" style="image;points=[];aspect=fixed;html=1;align=center;shadow=0;dashed=0;image=img/lib/allied_telesis/computer_and_terminals/Server_Desktop.svg;" parent="1NNlO9BBZ_LvHmM51Dco-32" vertex="1">
          <mxGeometry x="20.833333333333336" y="24.444444444444446" width="42.599999999999994" height="54" as="geometry" />
        </mxCell>
        <mxCell id="1NNlO9BBZ_LvHmM51Dco-35" value="&lt;div&gt;&lt;b&gt;&lt;font&gt;Normandy (&lt;/font&gt;&lt;/b&gt;&lt;span style=&quot;background-color: transparent; color: light-dark(rgb(0, 0, 0), rgb(255, 255, 255));&quot;&gt;NUC7i7DNK)&lt;/span&gt;&lt;/div&gt;&lt;div&gt;&lt;div style=&quot;&quot;&gt;&lt;span style=&quot;background-color: transparent;&quot;&gt;&lt;font&gt;Intel Core i7-8650U (16gb)&lt;/font&gt;&lt;/span&gt;&lt;/div&gt;&lt;div style=&quot;&quot;&gt;&lt;span style=&quot;background-color: transparent; color: light-dark(rgb(0, 0, 0), rgb(255, 255, 255));&quot;&gt;&lt;font&gt;Ubuntu Server 24.04.1&lt;/font&gt;&lt;/span&gt;&lt;/div&gt;&lt;div style=&quot;&quot;&gt;&lt;span style=&quot;background-color: transparent; color: light-dark(rgb(0, 0, 0), rgb(255, 255, 255));&quot;&gt;&lt;font&gt;192.168.1.201&lt;/font&gt;&lt;/span&gt;&lt;/div&gt;&lt;div style=&quot;&quot;&gt;&lt;span style=&quot;background-color: transparent; color: light-dark(rgb(0, 0, 0), rgb(255, 255, 255));&quot;&gt;&lt;font&gt;Ethernet&lt;/font&gt;&lt;/span&gt;&lt;/div&gt;&lt;/div&gt;" style="text;html=1;align=left;verticalAlign=middle;whiteSpace=wrap;rounded=0;" parent="1NNlO9BBZ_LvHmM51Dco-32" vertex="1">
          <mxGeometry x="72.91666666666667" y="42.77777777777778" width="177.08333333333334" height="36.66666666666667" as="geometry" />
        </mxCell>
        <mxCell id="1NNlO9BBZ_LvHmM51Dco-36" value="" style="shape=image;html=1;verticalAlign=top;verticalLabelPosition=bottom;labelBackgroundColor=#ffffff;imageAspect=0;aspect=fixed;image=https://icons.diagrams.net/icon-cache1/Operating_System__Flat_-2035/ubuntu-750.svg" parent="1NNlO9BBZ_LvHmM51Dco-32" vertex="1">
          <mxGeometry width="30" height="30" as="geometry" />
        </mxCell>
        <mxCell id="1NNlO9BBZ_LvHmM51Dco-37" value="" style="group" parent="1" vertex="1" connectable="0">
          <mxGeometry x="380" y="510" width="250" height="110" as="geometry" />
        </mxCell>
        <mxCell id="1NNlO9BBZ_LvHmM51Dco-38" value="" style="rounded=0;whiteSpace=wrap;html=1;fillColor=#d5e8d4;strokeColor=#82b366;" parent="1NNlO9BBZ_LvHmM51Dco-37" vertex="1">
          <mxGeometry width="250" height="110.00000000000001" as="geometry" />
        </mxCell>
        <mxCell id="1NNlO9BBZ_LvHmM51Dco-39" value="" style="image;points=[];aspect=fixed;html=1;align=center;shadow=0;dashed=0;image=img/lib/allied_telesis/computer_and_terminals/Server_Desktop.svg;" parent="1NNlO9BBZ_LvHmM51Dco-37" vertex="1">
          <mxGeometry x="20.833333333333343" y="24.444444444444446" width="44.37499999999997" height="56.24999999999998" as="geometry" />
        </mxCell>
        <mxCell id="1NNlO9BBZ_LvHmM51Dco-40" value="&lt;div&gt;&lt;b&gt;&lt;font&gt;Presidium (&lt;/font&gt;&lt;/b&gt;&lt;span style=&quot;background-color: transparent; color: light-dark(rgb(0, 0, 0), rgb(255, 255, 255));&quot;&gt;NUC7i7BNH)&lt;/span&gt;&lt;/div&gt;&lt;div&gt;&lt;div style=&quot;&quot;&gt;&lt;span style=&quot;background-color: transparent;&quot;&gt;&lt;font&gt;Intel Core i7-8650U (16gb)&lt;/font&gt;&lt;/span&gt;&lt;/div&gt;&lt;div style=&quot;&quot;&gt;&lt;span style=&quot;background-color: transparent; color: light-dark(rgb(0, 0, 0), rgb(255, 255, 255));&quot;&gt;&lt;font&gt;Ubuntu Server 24.04.1&lt;/font&gt;&lt;/span&gt;&lt;/div&gt;&lt;div style=&quot;&quot;&gt;&lt;span style=&quot;background-color: transparent; color: light-dark(rgb(0, 0, 0), rgb(255, 255, 255));&quot;&gt;&lt;font&gt;192.168.1.80&lt;/font&gt;&lt;/span&gt;&lt;/div&gt;&lt;div style=&quot;&quot;&gt;&lt;span style=&quot;background-color: transparent; color: light-dark(rgb(0, 0, 0), rgb(255, 255, 255));&quot;&gt;&lt;font&gt;Ethernet&lt;/font&gt;&lt;/span&gt;&lt;/div&gt;&lt;/div&gt;" style="text;html=1;align=left;verticalAlign=middle;whiteSpace=wrap;rounded=0;" parent="1NNlO9BBZ_LvHmM51Dco-37" vertex="1">
          <mxGeometry x="72.91666666666661" y="42.77777777777778" width="177.08333333333323" height="36.66666666666667" as="geometry" />
        </mxCell>
        <mxCell id="1NNlO9BBZ_LvHmM51Dco-41" value="" style="shape=image;html=1;verticalAlign=top;verticalLabelPosition=bottom;labelBackgroundColor=#ffffff;imageAspect=0;aspect=fixed;image=https://icons.diagrams.net/icon-cache1/Operating_System__Flat_-2035/ubuntu-750.svg" parent="1NNlO9BBZ_LvHmM51Dco-37" vertex="1">
          <mxGeometry width="31.25" height="31.25" as="geometry" />
        </mxCell>
        <mxCell id="1NNlO9BBZ_LvHmM51Dco-42" value="" style="rounded=0;whiteSpace=wrap;html=1;fillColor=#dae8fc;strokeColor=#6c8ebf;" parent="1" vertex="1">
          <mxGeometry x="380" y="650.76" width="250" height="230" as="geometry" />
        </mxCell>
        <mxCell id="1NNlO9BBZ_LvHmM51Dco-50" value="" style="group" parent="1" vertex="1" connectable="0">
          <mxGeometry x="420" y="678.88" width="148.79000000000002" height="66.88" as="geometry" />
        </mxCell>
        <mxCell id="1NNlO9BBZ_LvHmM51Dco-48" value="" style="shape=image;verticalLabelPosition=bottom;labelBackgroundColor=none;verticalAlign=top;aspect=fixed;imageAspect=0;image=https://upload.wikimedia.org/wikipedia/commons/7/7b/Plex_logo_2022.svg;" parent="1NNlO9BBZ_LvHmM51Dco-50" vertex="1">
          <mxGeometry y="6.8799999999999955" width="28.96" height="31.12" as="geometry" />
        </mxCell>
        <mxCell id="1NNlO9BBZ_LvHmM51Dco-49" value="&lt;b&gt;Plex&lt;/b&gt;&lt;div&gt;Docker Compose&lt;br&gt;192.168.1.80&lt;br&gt;&lt;/div&gt;" style="text;whiteSpace=wrap;html=1;" parent="1NNlO9BBZ_LvHmM51Dco-50" vertex="1">
          <mxGeometry x="38.79000000000002" width="110" height="60" as="geometry" />
        </mxCell>
        <mxCell id="1NNlO9BBZ_LvHmM51Dco-54" value="&lt;span style=&quot;color: rgba(0, 0, 0, 0); font-family: monospace; font-size: 0px; text-align: start; background-color: rgb(236, 236, 236);&quot;&gt;%3CmxGraphModel%3E%3Croot%3E%3CmxCell%20id%3D%220%22%2F%3E%3CmxCell%20id%3D%221%22%20parent%3D%220%22%2F%3E%3CmxCell%20id%3D%222%22%20value%3D%22%22%20style%3D%22rounded%3D0%3BwhiteSpace%3Dwrap%3Bhtml%3D1%3BfillColor%3D%23dae8fc%3BstrokeColor%3D%236c8ebf%3B%22%20vertex%3D%221%22%20parent%3D%221%22%3E%3CmxGeometry%20x%3D%2230%22%20y%3D%22130%22%20width%3D%22450%22%20height%3D%22531.5%22%20as%3D%22geometry%22%2F%3E%3C%2FmxCell%3E%3C%2Froot%3E%3C%2FmxGraphModel%3E&lt;/span&gt;" style="shape=image;html=1;verticalAlign=top;verticalLabelPosition=bottom;labelBackgroundColor=#ffffff;imageAspect=0;aspect=fixed;image=https://cdn1.iconfinder.com/data/icons/unicons-line-vol-3/24/docker-128.png" parent="1" vertex="1">
          <mxGeometry x="391.12" y="650" width="28.88" height="28.88" as="geometry" />
        </mxCell>
        <mxCell id="1NNlO9BBZ_LvHmM51Dco-56" value="" style="group" parent="1" vertex="1" connectable="0">
          <mxGeometry x="418.79" y="730.76" width="150" height="60" as="geometry" />
        </mxCell>
        <mxCell id="uaDNKYk8u-UNjfNYOpH2-26" value="" style="shape=image;verticalLabelPosition=bottom;labelBackgroundColor=default;verticalAlign=top;aspect=fixed;imageAspect=0;image=data:image/png,iVBORw0KGgoAAAANSUhEUgAAAa0AAAHNCAYAAACtoiRtAABINUlEQVR42u2deVCUZ7b/+SVTlZrUrdT85lZqbm5N1czULMk1BqPEhRgUFRckasQlksF9V4yGJBhN1KioJEQNBjeUQeLyIxo0LlGjUeNCBMUVFBUDykhDQy/0RtM08P7ek8G5JnGBdzn9vt3fU/X541bd1GD3+55PP89znnOCghAIBAKBQCAeFoIg/F+RYJG+IpNEEkVWiXwpkiNyVqS8hRSI5IrsEskSWSkyT2SCyCsiz+ATRyAQCERL5PSkSAeRkSIfi+wXudoKISlFicgRkXSRGSLhJE58QwgEAhGYcvovkdBmOS0T2StywQdyai3XRQ6IrBN5S6SnyB9EHsO3ikAgEP4lqr+JxItc1IGcWssNkczmLcb/wreNQCAQ+hTV882i2u+HonoQt0TWiISJPI6nAIFAILQtqqdE3mwudigPcGgF9plIP5Ff4elAIBAIbYjqCZGo5sKFEsjqvhwXGSPyWzwxCAQC4RtZ/Xdz+XkBpNRiboukNVckooADgUAgVBbVH5oLDj7Hqko2J0Rmi7wEgSEQCISysurbfCEXslGHfJHJdCaIpw2BQCCky+pxkS8gFTboMvVIPHkIBALRelkNb26TBJnwc4hWt3gSEQgE4tHCgqy0wxpsGSIQCMT9ZfVc8y98yEJ7W4aTcdcLgUAg/iUrql77RMvVgGaLpeLa9RvG4ydOmXZ+tceSkbml5uPln9rnLVjsjH93jmvGrLdrx0+a5o4ZOabuQdD/D/He+/NdixKXOVauSrWnZ2TWZO/cZTl67Ljph5KSSrfbrWV5HRYZLPJrPLUIBCIQZfVnrVUEer3e8oLCwqpNopTiRMH0Hxhd3yY4pOkv/xMscNGpa/eGUeMmuhctSXLs3rPPYjKZKzQmL2ouHIMnGIFABJKwhjVfdPVpAna5XIYD3xw2kyAGDx3h4RZUSwnt1rNhatzM2n9syqwhqWpEXtTTsSOeZgQC4c+yerK5i0WZr5JtSUlp5ZZtWdaJU+Pcbdt30qSkHkVYzz7eJUnJjhMnTpk0sKX4Lp5sBALhj8IK9VUjW7vDYcj6Yoc1PCLSq0dJPYwXOnRqnDR1hnvnrt0W+nf6SFw0k6wDnnIEAuEPsopqHivPlkRp9UFJPCV1jX3BoiXODp27NvqbrO4H/Tvp37t2/UYbrSh9IK9VIlNQrIFAIPQoq980j8Zgq/Dbs+9r89QZs2rbtAtpCgRJPYqIfq96qcIxN+9MNbO8cponQ+OOFwKB0IWwwrm6r+edOVtNovrb8y8KENWD6SUKbPPWLCvzGRjd8ZqOgZQIBELLwormSIgXLl6uGhg93AMhtY6QLmGNK1NS7VQ5ybzyisDbgUAgtCasqOaJuepV/5WWVsYnzHH9tU07SEgGPfv09x785rCZeduwN94SBAKhFWHFq5nwjMaqCpIVtgGVJXpYjCfndC7XmVdZ85UHnHUhEAifyeqJ5qoxdc6szuZXT5gy3f1c2/aQjIpEDhhcn5aeUWO12ji2Da+LfEwtvPAGIRAITmE9LXJcreRGbYwgFP6Ly4wrr/LmVl6/x9uEQCDUFtZfmvvQKZ7IiotvGmNHj6+DRHzHlLiZtWVldyoZ+xlG4a1CIBBqCatjczmz4peCV6Sk2nFupQ36DXitPu9MPueqK0vkWbxhCARCaWEpXiH4Q0lpZUS/AfWQhfaIm/l2rcVi4SqRp0bKSSjWQCAQSgirgxrCKiy8WhUa1rMBgtByiXyU99z5C1XMF5N74q1DIBByhHVOycRUVHTNODM+AXeudMSI2DF12bt2W5guJ/9T5HORSExORiAQrRFWuJLzrxoaGnB25QedNbZlbbfQd8m08qIJAYPwNiIQiEcJS/EzrMVLkxxI/P7BtBlv1VqtVs6WUHS/6wm8mQgE4n7CClZSWDTOnrqOI9n7F527hjdsz862MPcy/C3eUAQCca+w/kvJe1gms7liROxo3L3yY6iBMWOxBhVqTEYHeQQCcVdaKYpdFr5509ijt/9NDQb3Z0XKZzbGVRd1ZAnHG4tABK6sHhOZrdR24Jp1aba27TthKGMAlsivXZ9mo0bHTPLajF6GCETgCesZkUylurJPnvZmLRJ4YEMVou/PX+jcsi3LytjLkCYO/BFvNALh38Kibu37lRJWROQAbAeCn7B6bRrntmGJyByRX+PtRiD8U1orISygNtQIuejadSOjvL5CF3kEwv+EFa1UkqCtICRn8Kgtw7nzFjgZ73fRqitB5Em87QiEf0hrkxLJYeM/NtUgKYOW8mLHlxs3fb7FythVI59+oOGNRyD0LayRSlQJ0i9nJGIg9X7X/oPfmOk5YpLXSZHhVCmLDIBA6EtYzzSPPpeVBJavXGVH8gVKTE2madWM511HRcKQCRAI/UgrS/5YkcKqNu1CcA8LKNpJvqDwCmexRgw6ayAQ2hfWGLkve7nBUEF955BogRrFGmkbM2oYxXVI5M/IDAiENoX1Z7mNcB1Op6H/oCGYNAz8qUSe+hkOR4ZAILQlrP8UOSbrLlZVVUX08Dc8SKqAAxoSOmb8ZPe+/Qe4ijW+F5kh8jtkDARC5+dYtMLqGzUIKyzgE4a/McrD2M+QBp8uRFcNBMJ3wpJ9iTg+YY4LyRP4khc6dGq8eOlyFeN51wH0MkQg+IX1a5ECOS9vzuncaiRNoJVCjYQ5HziZV13Uy/ApZBMEgkdab8h9cWNHjcMQR6C5rhqr16XZGLtqXECJPALBI62v5Lys+/YfNCNJAq0yetwkN03HZtwy3I8SeQRCPWGNkLstGBzSpRHJEWgZGjb6zuy5rty8s9VM4ioWWSLyPLIMAqGcsJ5p7nIt+QIxbcEgKQI9ET0sxsNcrLEFKy8EQhlpyZqTNXFqHKYPA93y2ep1nIMnqVhjJLIOAiFdWBHNL5Kkl5AOuJH4gN4ZFhPrSV2z3lZSWlrJJK8Ukb7IQAhE64T1RHOlk6QXr/jmzUokPOBPtAkOaUpKXu6gC/JM8tqB8y4EouXSmiDnhVu4ZJkDiQ74I9TkOed0XjXjlmGSyH8gKyEQDxbW75qbf0p60X4oKa0M7tAZxRcP6YXXp//A+lFjJ9YlzPnA9fHyT+1r1qXZMrdsqyFoJtT+A9+Yt2zLstL/vSE9o2blqlT7gkVLnNNmvFU7aMjrnk5du6M7vo8vJ0+Nm1X73fETJiZ5nREZK/IbZCgEQuHii2ExsbhE/DN69XvVu/zTVfb8c+er3G63IonMarUajp88Vb0wcZnjpdAwSMxHLExc6qDvgkleVMkbT9v3yFQIxL+E9ZSc4ouD3xzGJeJ/j8UYV5e5eWtNeblB9QN8EiF99rPiE1zUWw+fPy8hXcIaj/GtuohckUHIWAhISxAGS32RaOxDeESkN9C3jWgbj0NUDxPY7r37LFGYV8a+7UuFGoyrrvLmXRGsuhABLa3PpL5A27OzLYH8Szt5xad2xgasLfoRsfOr3Zb+AyEv7kKNbVnbLUyzu4gckShkL0QgCutxkUKsslqXoNIzMmuUOqdSi8NHjpoGRg/H4E1G6PPOO5Nfzfg906y7Z5HJEIEkrdFSX5gVKZ/ZAk1WGZmba1wul0HLsvo5Fy5erpoy/U10KWGEqgwLC69ytYQqE/l/Ip2R0RCBsMqSdJmYtsTo4mWgXDBdkZJq1/rK6lHQCgDbhsyd5MdPdhcX3zQyfs/xyGwIf5ZWhNSXY+36jQGxyqLCBuako/qZF5290KoRUuEr1ElclsxZrLFXJBgZDuGP0kqX+mIs/SjZ77tf9Ogd6WU8WGeFEiglUqp+g1j8tkSeqgyfRqZD+Iuwfit1/AhNfPX3X+qDhrxez9hvzmdQEqVkCqnw8Fzb9twl8jdEXkXGQ/iDtGZJr0o7ZvLnezfUZon53o1PKSm9Vblg0RJHSOdXIC8maN7cvAWLnZcLCjmKNf4p8oXIQNzvQui5AKNA6ksQ/+57Ln8tuNi3/4A5UGT1c2hlmbwixR4oBTZageRFuxdM3zMVXg1HFkToTVphch780LAefrc1SG2Q8s6crQ5UYd1LWdmdyqEj/o77XYyMnTjFzby6T8WqC6EnaSVKfdip+avfrbDahTRBWD+F7qLR2QtWXbxbhpu3ZlkZi3/yRaKRERF6kFa+1Ad9/sJEp78li5UpqTaI6kHnXaWVE6fG4WIyI32jXqs/cSqHs8pwF0rkEVoW1h/k3PHxt0ozaruj90vDHFAS7RoegbtdjCz7+BM785WLZJr4gCyJ0Jq04qQ+1B8vX2n3p9LjbVnbrRBS64d9UpPg0LCeEBgTkQMG11Ovy2qTqYLxcvIbmJyM0Iq0MrDKChayvtgBYcnsrLF+Q3oNncNALHzVrVTdybj62o9mvAgtSCtXygOce+Zstb+8/HEz366FeJTBZDZXjB43yQ2p8DH8jVGecoOBa9V1u7lw69fInghfCOspqQ/vR8kr/GJr8OXuvRoC6eIw16pr9bo0G1ZdvKuuValrbYznsYdE/ogsiuCWVl+pD22fqEF+0R2cZkxBNOpAnf9jRo6tg1T4COvZx7t7zz4L46prHoo1EJzSipfysFYajRV+sq1SB7moC/3ypxUAXdaGVPgYETumji6FM33P1E0nhjrrIKsiNCmtjRmZNf7wYp88lYMLxExYLBZD8vJP7W3bd8LlZMbLyRvSMzgnatP5eKzIY8iuCLWklSzl4Xw9drTut3wmTZ2B4gsfjUCZO2+Bk2ZKQSx8E7a3Z2dbGL/nHJrNhwyLUENah6QcsvtDK5+CwitGSMR3FF27bowdPR7nXYxED4vxnDt/oYrxe84S+TMyLUIpYT3RfJDaqgfxwsVLVVhlAaU48M1hM6Ym85Ly2RrONmWUY8Yi4yKUkFYbKQ9h+ib9n2dhlaW9LvLDYmLRRZ4R+rwvXrrMuerKRIk8Qq60hkt5+GbFJ+h6dhZtSUEU2oRKtalkG1LhI2HOB066moASeYQepLVEyoPXtbu+m6SeOXuuCoLQ9sXk/Qe/MQ8YPAwrLyaoojNxWbKDsZfhVZEkdNVAtFZae6VUful7lTUOqyydQJN7N32+xYquGvy9DGliNdP3/C16GSJaI62C1j5kly4X6LoII3vXbguEoL9ehiiR529txviu3G5edWHLEPFQYUnqOXj02HGTnn9FMv6CBCqUyFOXB0iFt0SeRs8wbhmOQVcNxIOkFSzlwcr6YrtVry/gqHGT3Ej++mfkmAkQFyMdQ7s1MPYyJI6LPIcsjfi5tF6V8kB9siJFt53d9+zZZ0bS959CjQlTprv/2qYdxMJEROQAb/bOryx01sjwPf8g8rHIS8jWiLvSminlYUqYO8+p16nEjP3XABMlpaWVo8dPxuwuRvoPHFKfdyafs2fnDpHnkbUhrZVSHiCqvtPl3vzwGA+SvH+j510AvfYzPHzkGOdYnxK6W4rsHbjSypLy4Oj17kx8whwXErv/QyuAgdHDcb+LEVrpFhff5Owws0bkGWTxwJPWXikPTI/e/XU5+PHj5SvtSOqBw7as7Rb0M+SDriPM/3Cxg3ECeEnzWKUnkM0DR1q5Uh6Wl0K76fKiJ1U9IpkH3giUpOTlDjrPhFh4COkS1njs+AnOLcN8FGsEjrSuS3lInntBnwng2HesLxLQEIVXiowzZr1T26ZdCIZPMkAVnVTZefDQYTNVejJ8x7eatwyfRmb3b2lJekD0+iIVFV1DV/cAp9xgqNB7s2e9Ed470kujZxi3DOegswak9W9ul5VV6vXlEfNVBRI3IGgIYs8+Uegkzwi14WJadREXUGXof8L6faBJy2y2oH0T+DfUzTxu5tu1EArvqot5m562DJ9Exoe0dPnCIFGD+0EdzaknJaTityXyVKgRjawPaUFawK+6akyJm4lVF3OJ/MLEpQ7G75mu+HRA9oe0IC3gN1y/fsP45lvvQF6MjJ88zU1njMwtocJgAUgL0gJ+w8VLl6toJAekwgeNnCkovMJZ4Zsm8kfYANKCtIDfQEMQaRgipMK3ZUhVhjT0k7lEHsUakBakBfwDmgxAxRroqsHHix1fbjx46DBnlSFK5CEtSAv4Fzmn86rRy5C3qwZzL8O7JfLoZQhpQVqKUltaKdzZViPcWmsX7myuEZzX0emDCYfT+WMvQ5TI8666Nm/NsjJeTEaJPKQFacmnoVww7rUI52M8wokXhV9wdnC9ULbRJnhM6PrBgNFYVbFuQ3oNTfKFWHjoGh7RsPzTVfaqquoKxlVXN5H/A2NAWpBWayle5rivrH4hr0FewVmMlRcjn61eZ4NUeAdP7vv6gJnxO96AXoaQFqTVGpw3jC0S1l1yujYKhh0WCIW3lyFK5PlL5IuusW2NU6FGjMjjsAekBWk9ihuJzlZJ614uTawTXDex8mKCWhPFjh5fB6nwQeeL2bu+4vyRRhPfn4VFIC1I60FcnuqWLK0f6SAId7ZgACYjaRszaujOEaTCB42cYfyOb4tMgEkgLUjrflwcVydPWs2cG1YvlG+zCl4but0zUFZ2p/LTVavtYT37oFiDCRo3s3Z9mo0KZZi+50MiY3HmBWlBWmpI6y6nujQKt9bZhMY6yIUBKtWmkm0aQw+x8HXWSFyW7HC5XFw/0G6IvIk7XpAWpKWGtO5yJsor2C5WQSw80CXZSVNnoBkvI4OHxXiogz/j95wr0h6GgbQgLTWk9eOqq3OTcDvNJjR5IRYGGhoayjd9vsVKF2YhFb5CDboQThfDmb7nYpHpWHVBWpCWmtCqy3TMBLHwrbqoMSyKNXjvd23PzuasMswRiYBtIC1IS00uT3GjRJ4PumeEEnle6D7dDyWsW4ZZGIECaUFaqtJeEK7NcwpuQyXEwsOhw0fMg3E5mY3gDp0bFyxa4igqusZ5OXmcyK9gH0gL0lKLvH5ewfg1OmuwdpLPre4b9Vo9xMI4OXnSNDdjsQYVagyCgSAtSEtNLozyCI4ibBmiRN6vS+SpWIOxRH6XSDBMBGlBWqrRQRCuz3PiYjIfly4XVIWG9cT8LuYSeboUzthVYzpsBGlBWmqSP6Qe87v4qKiorBg9frIbQuEtkadJ1ehlCGlBWv4grburrhsLnYIHqy4uDh85ZgrvHYl2UIzEzXy7ttxgqGBcdSWJ/BZ2grQgLTUvJl+f7xScN1FlyHQx+fC3R03Rw/+OKkMmnmvbXvhw8VIHrXgZLyZ/IvIXWArSgrTU4mTHJvQy5JXXtqztFrosC7Hw9jKkS+FM3/Mt9DKEtCAtlMj7XVcNSqToqsEHVXTSDwaq8ESJPKQFaeldWne5OLYOJfJ80B0jFGvw0n/gkPrr129wPuNUIv88pAVpQVpqFmuUpdsgFT4yNm22YtXFBzU9Zu5lSMUaUyEtSAvSUpNLE+t+7CJfx1aFFdAUF980pqSusQ+MHo5iDSbos6bPnD57pu85XSQa0oK0IC1Vz7sivf+SVyXkxdgSamZ8gut/gkMgFwb+2qadMGb8ZPfZ/HNcM+pOiswQ+R2kBWlBWmpuG5ZnWSEVPs6dv1AV1rMP7ngxEp8wx2U0VnHe8RoNaUFakJaaFEx3C7WluN/FxLVr143DYmKxZcjICx06Na5el2Zzu91c33OmX49AgbQgLU3c7ypZ4UBnDT5279lnebl7L9zvYoQ6mZw5m1/N9B2XiMwReRLSgrQgLbU43aNBMOzA/S4m6Jf/ypRUO3V7gFT4Kg0PHjrMORk8X6QDpAVpQVqqjkAZ6RFMx8UXuwFyYeBG8c3K+Hffc7Vt36kJYuEp1Bg5doJ7z96vuS4n06pricjfIC1IC9JSk7MD6wXzCRPEwoPJbK5ImPOBE3e8+KAt2uxduzl3FxJ1v2UIaUFamufyFLfgqUKJPBMFhVeMfaMGYWoya5XhXBdjoUaurrcMIS1ISxfk9mkQLN9j1cXWz9BmoHJtCIUPuo5ABTKM5fGvQVqQFqSlNlferEWJPB8XL12uQok8LyNix9TRapepg/wYSAvSgrRQIu930LkLSuR5R6DQ+aLd4eB4xqkd1FOQFqQFaalNTtdGwXQMW4ZMUKVbRubmGszv4uOVHr0b0jMyaywWi9ry2iPyHKQFaUFaXIUarpsYgcIor/Ub0mvozhHEwkOb4JAmulOncrEGnXNNgbQgLUiLq5dhcSK2DBmh7g7U5QFS4S2RZyjWGAtpQVqQFhffd2v8sRFvEy4mc3XVoL56bdqF4GKy/5TIl2l65AmkBWn5bZUhVl1s0BgOdJDnZeSYCXV0IVzF73UmpAVpQVq+6GXY5IVYmFZdq1LX2uj8BVLh62W4eauqI36SRB6HtCAtSIt18GQ/r3BrnU1wl+N+FwNU6ZaRuaUmcsBgdNVgomefKC995rXqbBnuFXke0oK0IC2fFGsscQq2i1WQC9/9rmkzZtVCLDy8NnSEJ2v7l1YVGvFSZeEISAvSgrR8RdFsl1BnQD9DJnJO51b3HzgEKy8moofFeMrK7lSqUKARBWlBWpCWrzjVpfHHbcNGnHlx3e/alrXdEhzSBfe7mM679uzZZ1ZhxRUFaUFakJYvuTi2Dl3k+SgqumbsG/UaVl1MbNmmeKGGb8UFaUFaoLkllKMIXTUYV12bPt9iRVcNnqGTGZ9vVkNcoZAWpAVp+ZT2gnBpfJ1g3G8RGusgFwZcLpfhi+3ZlqEj0Emeo3v8hYuXlCxCoonI3SEtSAvS0sodL+tZVBkyEjfrbVQZMrB6bZpNwe/tqsgzkBakBWlpYgRKiCCUrrZj1cUHFWqgi7z6zJ23wNnQoFirs+MiT0JakBakpZmpyb0bBOPXFkiFa2qy1ZCUvNxBM6UgGPVI+WyNkiuurWydMyAtSAu0kAujPIK9AFuGTJSUllaOnzTNDcGoV6Cxb/8BJUviEyEtSAvS0urFZGcxKg2Z+O74CdPwN0bVQTTqiCthzgcuq1Wx5tJLRB6DtCAtSEuTneTfqhXcd9DPkIlz5y9UUacHyEZ53p+/0KmbFRekBWkBOcUaHZuEkhS70ODEGBQmtmdno1hDBTb+Y1ONgt/TryAtSAvS0nqxBkrk2XA4nQaUyCsPNThW6Dt6A9KCtCAtlMiDe6CSbZTIKwtVbNI2rALfT67IE5AWpAVp6WV+F3oZspbIJy5LRom8YuNNXvcoNNpkIaQFaUFaejrruvpureC4hipDJozGqopFS5Icz7VtD/nIJHb0uDpjlSI/vCZBWpAWhKC3LcOSFQ7BY0OhBhPlBkPFy917YctQJhGRA7x0dqjAd9IL0oK0gB57GVbsRFcNJtxud3nyihR7m+CQJghIOqPHT3IrsFWYL/IUpAVpAT1yboRHuLXWLtRV4syLAZrem7pmva1v1CDM75LItBlv1dK5oczvIksxcUFakBbwRYl8RINgPmGCWLiKNWyGhDkfOFGsIX3FpZlLx5AWpAV8SMF0t1Bbiq4aTFy8dLlqWAxmd0nh4KFv5fYppMGRf4K0IC3gD8MnC+PcQrWYFJq8kAsDZ/PPVc/5YIHzf4JDIKQW0q1nH68CFYWrIC1IC/gTlybW4Y4XH4WFV6si+g3AeVcLGRg9XO4drjKRYEgL0gL+RE7XRqHsHzVYdfFASXj9hvSaFzu+3AgxPZoVKal2mZ/5DkgL0gL+yJkoL4o1+DCZzRU00RfFGo9u9VRYWCi31VNfSAvSAv7KjUSn0NQAsTBRUHjFiBL5h9N/0JB6mduEOZInHUNakBbQQ5VhXC26avCXyENQqm4TxkBakBbwZ06FNgrXFziFmnPVEAsPt27drhw3caqbJvxCVD+FejxeulwgZ5vwKvkH0oK0QCBwcWwdpibzUVx80xj12lBsGf6MSVNn1Mr8bNMhLUgLBEw/w54NQvVhM6TCg8vlMqBQ46fQCrSkRPbl+OchLUgLBNrdLud1jEBhoujadWPs6PF1kNa/GDdpmtwWT2sgLUgLBBwdBKE4ESNQGDnwzWFzeO9IL8QVLJw4lSPnnJXaOz0NaUFaICCLNTo3CSUpdsELeXFdTN667Qtr1/CIgJ7fFdazj9disch55qZBWpAWCGh5dWkUbq2zCY11kAuTvDZvzbKGdAkL2K4a8QlzXDI+w28hLUgLAEHI6+cVjAdRrMF2v8tqmP/hYkcgFmvQv1lmUcazkBakBcA9JfLlKJFHibyWV1tJkBakBcBPS+Rtl6ogFR7sDkfAlcjLXG3dEHkS0oK0APhpB/l/ZqKDPPPgyehhMQEzeHJh4jKHjM9rJKQFaQHwgC7yA7zC7TQbKg15cLvd5StXpdqee6G934tLRjPdEpH/hrQgLQAeTG6fBsHyPUagMHHk6HemNsEhTf4sre+OyxqpMw/SgrQAeDRX3qwVaktRrIGJybJZtETWFmE+pAVpAdAyTnZsEkpWOHC/S30cTqeBqu38UVp9+g+ql/n5dIK0IC0AWs6FkR50keeBLiX74+iTG8XFcp6fREgL0gJAwqorxY5Vl/pkZG6u8TdpJSWvsKuyRQhpQVoAPJTvuzUKxUsdgqMId7xU5NC3R0z+dM7VoXPXRrPFUiHjM3kR0oK0AJDHzWQH7nipe841NW5mrb+IKz0js0bG5zEF0oK0AJBP/uB6lMir23yXOmn4g7QGRA/zKD5nC9KCtACQxA/L7Vh1qceHi5c6/EFc5AqJn8FxSAvSAkBZzo3wCDX51ZCMOoydOMUdwFuEZfftRQhpQVoAyKbkUzskozwVFZUVnbuG63rA5NARsXK2CPtCWpAWAOr2MqyrrIBwlBXX6PGTdLviojtopbduSd0iXAlpQVoAqEwHQbi5zCF40IhXyeIMPVcVfrZ6nU3iv/0qpAVpAcB3v8t8AlWGCopr6IjYOj3m3NdjR9dJ/XdDWpAWAIy0F37sZYhVlyKYzOaKiMgBXr3lXOpqT3fQIC1ICwCdTE3u0SAYdlggHvkU37xpbNu+k+5Gmxw9dlzqqvsZSAvSAsA35PX3ivKyCkIDBCSDL3ZkWwJoovEQSAvSAsC3nB1Yj/Muebz1zmxdjTXp1W+A1HElyZAWpAWAdiia7RI8VSiTl3C+9XL3Xrq6w1VeXi7le86FtCAtALTFqS6NQu1tzO9qJSdOnqrWU+7NzTsrtXvKU5AWpAWAxkrkwxsE40EzZNQ6Epd9pJsehTu/2iO1GCcY0oK0ANAmF8fWCc7rRgipZbjd7vJeOpnD9dkayZeMoyEtSAsAbd/vujzJLRj3W4RGdJJ/FD+UlFZ20kGPwnffe98l8d84H9KCtADQycprtEeoM6BQ41HnW6dyNH++FTt6nNTOGFsgLUgLAP1wsmOTULraLjTWQVAPQettniKkl70fh7QgLQB0eDm5n1cwfo3OGg9gR/ZOTV867tC5a6PEf9sNSAvSAkC/XBjlQYn8L3G5XIYXO77cqOX8S41/ZZW9Q1qQFgD67GfYEyXy92FjRmaNlvMvuUPiv+3PkBakBYD+yR9SL/wzs0bwmFCs0TzC5I1R4zR7tnU6L69K4r+tG6QFaQHgX8Uaxt047xIpKSmt/NvzL2oy/27/cqdV4r9rOKQFaQHgn70MIa7y+IQ5mmyom75JXBVL+zdNgLQgLQD8k/N/9wj2giqstrS32kpJXWOX+G+Kh7QgLQD8m5vLHEJT4HbUmDR1Rq3W8u+iJUlS52q9C2lBWgAEwHbh3IDdLsw/d75Ka/n3ndmSv4+VkBakBUBgYDoWsAMnBw193QNpQVqQFgB64uq7AbvaosIHLeXfuFlv10JakBYA4GGci/EEqrSuXb9h1FL+fT12dB2kBWkBAB7G2dfqA7mSUEsFGZAWpAUAeBSXJrkDWVoHvzls0kr+HTtxqhvSgrQAAA/j9saaQJYWtXYK69nHi0IMSAvSAkDzjXV7NAhemyHQO2R8tnqdDdKCtCAtALRMTtdGoSa/Gm2d/tUhQwv59/35C50S/w3JkBakBYD/UjDdLbjvYObWPYRHRHrRxgnSgrQA0BQdBMF8wgRJ/ZL5ixKdvs6/qWvW2yAtSAsA8ON9rGH1guumEYK6P0ePHfd5FaGM0SQxkBakBYB/cGGkRzDssAoNbsjpIbjd7vIXXwpt9GX+PXrsO6mr4FchLUgLAJ2vrIbWC9Y8FFq0grhZ8T6ds3WjuFjqSrgjpAVpAaDjsSOfBPTYEalsytzq016EDqdT6vWD30NakBYA+iN/cL1g+R6FFhIpKCz0WS/Ctu07Ncn425+AtCAtAPR156o8y4rVlfzuGG2CQ5p8kXvDevTxSvy7C4LuBqQFaQGgbdoLQnGiQ/Cgq4VSDBg8zCcztqKHS+62vx/SgrQA0DYnQwThylu1gr2wCqJRFhp574vcO2PWO1JbOK2BtCAtALQLyQrdLFTjqz37LL7IvUnJy6V2w5gOaUFaAKCEHcUYrGzZliX1YnEUpAVpAaCxEvZklLAzQWXnvrlYfFxq1eezkBakBYB2egX+IAoLMmHlhQ6dm/gvFktqsXVb5HFIC9ICwLec/7tHuLXWjl6BvqF7r36sHd9f7PhyI7WRkvC37gm6NyAtSAsAVi5Pcgs1Z3Fu5WPeGDW2jjPvzox/V2rl4CxIC9ICgJ8zUV6h+rAZwtAGM2a9Xcva3T17p0Xi3xoKaUFaAPB2sridZhMa6yALDZEwdx7rbC1yhsS/9UlIC9ICgIeLY+sET1UFJKE95i1Y7ORr39Rbavum8qCfB6QFaQGgOKe6NAq31omrK5Swa5XEpR+xdcWYPXeeC9KCtADQ5uTgO1tqBI8FfQI1zspVqXaunJtzOldq4c1eSAvSAkB5TvdsEMwnMC4E0voFod3EZ0P63zkd0oK0AFCWSxPrBHc5+gRCWvfl/fkLnTL+zg6QFqQFgDLk9fMKxoMoYYe0HsqJE6ekrsCLg+4XkBakBUCruTDKI7h+QCcLSOuhhHQJa6ShkxL/xq8gLUgLAHl8H94gGL+2IOlDWmpXDYosgbQgLQCkkRvRIJSssgueaty58peS92XJqpa8/7VNO6GgUNYAz1chLUgLgNZ3s7iz1YqRIbhc3FpGj5vklvk3/gbSgrQAaCHtBeHGQqfgMWNl5ae89c5sl5p5ds+efXKKdHYFPSggLUgLgF+srozfoCrQz5k2Y5ZqDXODQ7pIHUNylwmQFqQFwKOHMV6f50SvwMAgZuQY1UaTTJgyXe7W4DOQFqQFwMNL2O0FVUjmgUP/gdEetXJs+qbMGhl/246ghwWkBWmBAO8ViBlXAUnnV8Ib1MqxlZVGOav1XpAWpAXAPeXrvRuE0lQ7egUGLlar1aBWfo2IHOCV8bdlBT0qIC1ICwQQV9+tFRqc6MAe4OTlnalSb0JxtpzL5x0gLUgLgH/xwwo7EjYfu3bvtdBdKC3+bZu3ZlnVyK3hEZFeGW2bjga1JCAtSAv4+7nV0HrBmlcNkfBgNFZVxCfM+fcdqILCK5rr0bhoSZJDg6uskZAWpAUCuk9gt0ahPAvdLJige0mrUtfaXujQqfHefDNp6oxarf2tr8eOrtPYKqtY5ElIC9ICgcjZQV7BuNsiNLhwdsVAucFQSaPrO3d9cDXet0ePmbQk17btOzUp3WfwZE6OnNX88qCWBqQFaQE/4WTHJqF0tV1oxMqKC9oOe7Hjy42Pyjm9+g6o18rffPzkqWqlc+q8Dxc7ZP5doZAWpAUCqirwnVqhzoBOFkycO3+hamD08FZdzj363XFNrLY+W73OpmQ+JWmbzLJ6VOaKPAZpQVogIIosRniEmnwUWfBtBVbMik+Q1Gh26oxZmjjbGjVuklvJfLp6XZpN5t80Iag1AWlBWkDHJewosmBjz96vzW2CQySfBdF/K3NFIhsqlPh5oYgcOnXt3iCj+IK4IPIEpAVpAX+eHHwzySE4izHqnonsXbstI2KVaS6bkbmlxpf/lgPfHDYrmUs/37LNKvNv6hvU2oC0IC2gkyKLW+tsQmMdRMJESWlp5ZS4mYqO70hJXePTC95xs+IVm6HVq9+A+oaGBjl/T1qQlIC0IC2gg16B1rPowM5aFbjTImcr8IHnWnG+O9eibbyWVDq2hL89/6JAxSgy/p7bIn+EtCAt4G+c/7tHcBRBWEyUld2pjJv5tmrDEUkaMlcnkjlx4pRJqX/HwsSlckvck4KkBqQFaQENcrpHg1Cx0wKR8F24XZmSaldjdfVzSm/dqvTFv3H23HkupbYFHU5ZTZevijwNaUFawC/OrkIEoWSFA53YeQstXu7eq4Er/xw9xn9fi7YGQ7qENWpgW5CYHiQnIC1IC2ik0OLqbJfguIaqQAZoi+7EyVPVMbHqjZx/EOs2pLNXEGbv/MqihLB2fbVH7ur/kMivIC1IC+iZa3NdgqcK3SyYyDmdW91/4JB6X+WfhLnz2MeV9I0aJPvfO+f9+Ur83ZFBcgPSgrSAD4ss7AUosmAsslC6hF0KYyZMdnP+u+kMTe7fTGd9ZXfuyD2Ly5G9yoK0IC3gAy5PcQuGHVaIhIeia9eNS5KSHRxFFi2hT/+BrM1zU9eul9VrkLrXHzn6ndxzuHyR4CAlAtKCtAATZ6K8gkk7Iyr8HavVapj/4WIHncVoKf+8FNqtkfNziBwwuN7HhRdEryClAtKCtIDK5HRtFG6n2dAnkI9Nn2+xKnWRVs85qOjaNaOcv/OLHdlKXLtYGaRkQFqQFlCJU6GNP8638tpQvs7E2fxzVROmTHdrPQeZLRaWZ+KNUeMkVUe2aRfStGv3HiWE9YXIryEtSAtovgN7skPwQFZcGI1VFQlzPnDSBF095CDKn2p/JgclNselzzDvzFklxt1Q4cWTQUoHpAVpAYW3AsuzUGTBeGmW5jlpeSvQV9LqPzBa0lnWkqRkJZr6lilWeAFpQVpAJQqmubG64uNyQWFVeO9Irx5zkNrSkrrKiogc4LVaFXmGPwtSKyAtSAsosLr6Z2aN0NQAmTCtrjZmZNa0bd+pSa85SE1p0ecj5TIxCYu2WRX6O/4MaUFakJbm6CAINxY6BY8Z3SyYOPbdCVNEvwH1es09HNLanp1t8bGwcoPUDEgL0gISpgffWmMX3HcqIRL1cblchswt26wDo4d79C6ru1BXeTU+q4qKyorWnu+FduvZcPbc+WqF/oZjIn+AtCAtSEsz51bT3egTyEdB4RUjrQL8RVYEbWuq9Xkt/egThy9XWLJGjkBakBZQkPzB9YLle3SzYC5h11o3CyXoEtazQa2ZYB1Du7V4xEpEPyq6sCpVOHRD5PkgjoC0IC3wiCKLO1ut6GbBV2SxfkN6jd5K2FtD/4HRHjU+u2XJy1u8ynqhQ6fGwitFSo3BuS0SEcQVkBakBVDCrgUKC6/qtoTd113eCwsLq1q6KqUGuJcuKzpdYEwQZ0BakBb42eTgK2/VCqajJkFohEwYsFgshozMLTX/Exwi+LuwiHkfLnYoPXIlrGefR8r+ubbthQWLljgsyraQWhDEHZAWpAWaIVnVlqIikAk6g1mVutZGW1WBIKu7kKCV/Az7D3r0QMuXu/dSenVFpIk8BmlBWpAWO+0FoWSFAyLhY/eefZaWrA78kaPHjitW0PPh4qWPPMfqN2BwvYIVgnfJEnk8yBcBaUFagX3nqlujYD6BqkDG1dV7c+c7A1FWd6FJwkp8lidO5VQ/6n+rb9Rr9XfKy5XePdilSiNcSAvSAo/oZnFzGTqxM3L4yDFTIBRaPAyqimxoUKbd1+z35z1U/nRlwOF0GvxKWJAWpBWw4+5dN40QCd+4+9jR4+sCWVZ3mRo3q1aJz/TCxctVD/rfCOkS1rhv/0GzCt/lcZ8LC9KCtALncvCQ+h+b2nrtWFkxQO2EUteut3V5pUcDZPW/fLZ6nU3uZ3vk6Hemtu1/WbwSPfwNT07O6WoVvs8SkXiRXwVpISAtSMuvORPlFYyq/OoE94E6LCQuS3b4YycLJciVOVzx8JGjpp9/tlQZeOCbw2o94wUiHYO0FJAWpOWf9606Ngm302xCYx1kwgCd02zL2m6hrSnI6f6E9ejjlfMZX7x0uere6wEkr6Tk5Q4Vzq3uki/ylyCthVRpURUQpAVpaZK8fl6h5nwVZMK3upo2461aiOnhrFyVKnlrsPjmTSN1sri36e6Ro8fUrHo9xNL8llNaxF/btIO0IC1tra5urcPqihGa3XRvMgX3h1ZFUu9K0X/X456qS5onRi2vVPxeD2ii4EINab0U2q0R0oK0NEHRbJdQZ8DIECZoS2rGrHewumohcbPiXdJWsTbD3dEsVC5PE5upqbCK3y2NF/nvIC2HHGm9+tpQD6QFaflWVnNdggutl7gou3OnkvrXhXR+BWdXrbibRf0BpQgrZuSYusHDYjzbsrZb7Q6HmpWv15srBP8jSOshR1pTpr9ZC2lBWj4bGUKFFhAJ28iQzVuzrHSWAhG1DlodSdkS7D8wun5r1hdWhu+XRov0DdJLyJHWwsRlDkgL0mLvZHF9nhPTg/k4cSrHRO2AIKDWQ+d9VLTW2qIL6mZRUsqyg0DbgcFBego50tqQnlEDaUFabFwY5RHsBagKZIKS5pS4mTi3kgEVqrT2cy8oLOR6xveIPBWkt5AjrW+PHDNBWpAWC7fXYyuQkaztX1rbBIdgK1AG4RH9vBr+jqlL+2+C9BhypPVDSUklpAVpqcr5v3sE20WsrrgKLcruVMbNfBurKwVYl5Zeo8Hv+Ab7pGEtSauxsbG8a/cIL6QFaSl830oQrn3gEmrOVkMk6kPv8XfHT5iomStNt4Vw5DNg8DCPw+HUUp/Ly83Vgf8ZpPeQIy3io+QVdkgL0lK0V6C9ECsrxm4WEyZPw8pKQaiVlQpDF+WQLvJEkL+EXGlRA0hIC9JSrIQd3SxYS9jRK1B5jn133KShrcDpIo8F+VPIlRYR2q1nA6QFaUkGJeys5JzOrUYJuzp8vHylXSPf8yqRZ4L8MZSQFo0igLQgrVZzdpAXJey8ndiXffyJHXJRh3GTprpVbrHUEr7X3CgRLUpLjAo93ZSHtHzMuWH1wp0tNUKDCwMZmWR1+NujpqEjYj2Qizq89/58Z2svESvMUZEJumjDpAVp6W21BWn5sJvFnS1WiISPY9+dMFFXcIhFPWZIbIarEDkiUUGBFEpJi5bF4RGRXkgL0vrlfKv+XqEmH+XrbBWBNsOs+AQXhKI+ics+cvjoez6ru/ZLWpPW3dk6kBak9ROuvFWLIgs+aLrt3VEWQOVGuP/Y5KvLw1tEfhcUqKGktPSy2oK0GMgfXC9Y87C6YoLuBVGTVciEZ6Bj9q7dFh98z8dFwoMCPZSUll5WW5CWinzfrVEoz7IKTV7IhOm+1ep1aTaa2QSh8HRtzzvD3qnlqshkkceDEMpLi9B6lRKkpZKsbm9ARSATVKmWnpFZg1H3fNA5ocViMTDLalZAVAT6WlonTp6qhrQCRFonOzYJpavt6GTBB21Nvdy9F2TFOHmYeTuQhjLO0eXYEL1KixgRO6YO0vJzaV19p1Zw38GoeybOnb9QFT0sBnetmPsIlhsMnIVEmSJ/hJl8IK00DQ+IhLQUWF1Vfon7Vox8tnqdDRLh469t2glz5y1wUkNhpu/4nEgYjORDaTmcTkMvjV5qhLRklrDXlmJ1xXh2NXvuPFQFMm8H7v36gBkl7AEmLaKwsLDqhQ6dGiEtP5AWlbBbvjdBJHzsExNneO9I3LlihK4NMI4VyUEJu8akdbejdMfQbg2Qlk6ldbpXg2CkQ+gGiIQBu91uoKrAyAGD0XqJidCwng3LP11lv3XrNtcOwlcivf1uZIi/SIsovnnTqKUVF6TVQopmuwSPBSXsjIUWemmF5i8sWJToYO7MPhey0oG0CLqQR4ebkJYOpHVuhEewXcTIECaoOg29AnmhbVdqJszchR2FFr6UFhVatPa/WZKUbIe0NCyt0z0ahIqdFoiEr8hiVepamxbPff25yGL9hvQaxtVVgchIdLPQgLRul5VV2u0OQ2tf0qEjYusgLQ1K60p8reCxYSuQibP556rCevbBViBjCTsVWZjMZs47V5/jgrDGpFVUVGSUskKLHT2uDtLSiLSo/ZJhh0VoQqEF1+qKegXqaWgqStgltV8ag7MrDUpr7779kh4EmqRKFVK+avIJaYlcHFv3Y1UgegWyUHzzB+PSjz5xoFcgHwOjh3syt2yz0nwxxqrAN9ArUMPSWr4yxS53nIIvqqUCWlpnBnhRZMFHtclUETfz7VpIhHd0CHORRa5IKGyiA2m9+dY7tUr8AuVu/qnbJHg1oRYl7PoqYe/ZJwrnVoxEvTa0vrj4ppHxe04XeRom0Ym0QsN6NCj15V+6XFAVwdT2SbeJ0HjQ3PqVVZRXMB1DJwtGTpzKMdGvfUiED1rNlpWxNW+mldUg2EOH0qKHpdJorFDykDp5RYpd7RdetwmRzp9yeze0WFjXFzgxMoR3evD4SdPckAgf/QcOqc87k881lPGWSLzIEzCHjqW1MSOzRumHo6KisuLDxUsdbdqFNEFaP6OuskK48ubDtwnPve4Rqr81QyQ80C/8T1ettmutXZk/ExE5wLtz124LFXUxfMfFIikif4Ex/EBaAwYP86j5y3Vh4jJHm2Bl5eUXydJRZBSK3nP9WLJ+t3SdOrBb86ohEh7ozg+Nr8BWIB90t233nn2cF+Cpqe1vYQo/khZRXm5QdS+5sPBqVezo8XWQFtAC9Ot+ow+vbAQi9MN1ZUqqnY4QmL5nWl1Nx1agn0or64sdLAMBbxTfNM6Mf9cFaQFfQUMBx06cgnMrRoa/McrDPD2YCi3aww5+LC3qcMHaYFRc2dHl5KEjYj2QFuCAetVt3pplxeqKd3VFhVmMq6sbIm9idRUA0qI9feaeXj85V9i9d59lxqy3a1uaUJCEQWtL2PtGvYb5VoxMiZvJWcJOrMJ9qwCSFvHx8pV2LSQYKsG/cPFS1aHDR8y0GktKXmGft2Cx8834d2tJbAQSMWgJBw8dNg8a8roHEuGh3UtdGhOXfuS4fv0G1+XgMpGVIn+CCQJQWjRegXEZD4BqFF27blSy8Ac8GsofjJODiSyRZ2GAAJYWsT0bs5gASthB66ABmHS9hbGEvS8yP6T1I4OHxXiQ/IAuu7AX3zSiyIKXaDFfUH9GlLAjWiutp5SSFnHh0iV0EAe6ImPTZitWV7zzrbZnZ3PuylAJ+0vI9v4lrtZvpZhMFfdf6s92IRECPVBSWlqJXoH8M65osgPTd1yCEnb/lVaZlIfiQWOtS3kPVAFo1X0rqgqcNG2Gm55ViER9aErzzPgE16mcnGrGXoFjRX6D7O6/0sqV8nC8+FLofc8APl7+qR0JEmix0GLkmAmoCmRkROyYOsYiC2ILegUGhrSOS3lAOj1gdHifqEH1SJJAS6ur9RvS0SuQuYR9VepaG332TN/zVZHJIo8howeGtL6U8qD06T/wgV0Cck7nots48Dk0dj28dySmBzOXsDP2CrwtkoxuFoEnrTQpD8zQEbEP3GpJSV2DLULgM2gm2+jxk1FkwVxkwVjCXt68QxSMDB6Y0vpQykMzcUqc+2FD2ph7hwFQfvHS5Sr6wdQ1PAIDGZmg7iFbtmVZmc+tZtJ1HWTvwJXWSCkPz+KlSY6HPczUhR2tnYDauFwuw67dey2xo8ahyIKRSVNn1DKurApFFos8j4yNIGmFSnmQ1qWl2x71YC9LXu5AYgVqQWXUnR9QEATUgTreU+d7xu95jciTyNSIe6UlqZXTzq/2WB71gFOnARreiAQLlCbvTH71c23bQySMLExc6mCsCLwgMhwZGvEgcd1u7UOVczqvuiUP+rCY2DokWaDYEFCDoSJu5tu1kAgfEf0G1FMlJmMnizk4s0Iofler9NatypY+9Js+32JFwgVyoPPRlSmpdppoC5Hw9QncmJFZw7i6yhT5IzIyoiXSWifl0ia1aGnR6Ox2IU2FV4qwTQgkFVqsXb+xpmNoN5xdsa2sXvVuy9putTscBsZCizBkYkRrpDVZ6btavyiNHTUO24SgVT+KxMRpCekShk4WTNAqNil5uYN+KDBuBcajqS1CirQipDx0i5Y8vOz95+zbf9CMhAwefV6aW91/4JB6iIQP6nhPne+ZqwKfQfZFSJXW01IevH37D5hbu0eOS8fgYXz8yUo7JMIHXcRmLmH/XqQjsi5CCXEVKDUM8lHtXnDpGPwcuqhKzwZEwge1uqKWV4zfcxr6BCKUlFamlAcxNKxnqw/IZ8+d50SiBndL2KnJKiTityXsxFFqYoAsi1BaWrOlPJBz5y1wSnlx6L9jLKUFGoOqSWfMeqcWF4T5oNZqh789amIaxkjsEOmGkSEItaQVL+nQPOd0tdSXaEN6Rg0SeGBhtVoNicuSHZgczMuyjz+xM/5IzBeJRlZFqC2tCVIvfUq98EmFGSWlt1CYESjzrY6fMKFXIH+vQMb5dlTCnoASdgSXtNpIfVhHjZskeXYRjTFhHskNmHE4nYbkFSnoZsEI3W/bvDXLyri6ohL23yOTIrjFVSzlgd0ivhxyXrD+g4bUU2JDgvfHO1d56MTOCG27UmNb2oZlXF2NQPZE+EpaX0uqACs3VCpwSFwHcflfr0AUWvD2Cjxy9DvOqsA09ApE+FpaC6Q+wLFjJriVKMVlHtkNFKao6JpxwaIljpDOr6D9EmNVIPUKZGy/9GNVIDImQgvSCpf6IJ85m1+lxAtIM7gyMjejK7zO2JG9y0KtgCARHmjLdfmnq+w0V4zpO77dPD04GJkSoSVp/VrKbK27DB4Wo1hHg1Wpa22QgfYpKLxiHBE7BqPuGRkWE+thboeWJfJnZEiEVsWVJfXhTs/IrFHy5UyY+wEuIGsUk9lcQRfEaWUMkfAQ1rOPd/eefRbG7zmHmmkjKyK0Lq0xchKZ0pdGP1mRYocktMXBQ4dNdOgPkfBAxSy088DYs5OqiKeLPI6MiNCDtJ6R88BHD39D8aanycs/tWPFpY1uFvM/XIxuFoy83L1XQ96Zs1XMq6v2yIQIvYlrndSHPm1jRo0aL2/UoCH1Fy9dRmWhDzibf656zgcLnC2dVA2UKbT4KHmFvewOy9lVmcgmkUiRXyEDIvQorU5SXwBDRUWFapNV24U07dmzD4MkGacHxyfMRQd25rtWq9el2Rh3Fg6hyALhL+LKkXxna/R4VavJaJQF443/gIRaa40cMwFVgYzQ583Y0oyqhBOpYhjZDuEv0oqX+kKkpK6xc+z1M88ECpjVFf3SR6EFHy906NRIhRaMqyuqEH4WWQ6Bgoxm9u0/aOZ64eMT5rgYOwH4NYePHDOF9470QiR80K4B4+oqFyXsCH8X10opLwcNmXtj1Di2raUeYqJlbmPjV+z7+oA5csDgekiEhw6dujYmr/jU/kNJKdcFYSq0SBL5L2Q1RCCstsqkvCgl4gvJffGUtrQ2fb7FivL4Fn5Hpbcq+w8cAlkxQue9d8rLObtZZKKpLSLQxPW11BeGtu58kRhoi+ts/jmUxz+kAzt1L8G5Fe8zSduvjN/zcZEwZDAECjI0vtq6t4vAwsRlDgyY/GmRBckK8634S9iZu1mMQTcLRCBLq52cl8hXq61/3+0KDmlKmPOBs6S0tDKQhZV35mz1a0NHeCASPqiRMPOPJrqm8jyyFgLiknFni15arYxZHzdpqttqtRkCaWW1e+8+i5Ld94EmS9ivikzG6gqB+F9pdZXzUm3P3mnRUuVW/LvvuWj+E/N4B9a2SwnvfeDCmRUv1OZq9tx5TovFwvXDaK/ISJH/QJZCIH4prnQ5L9jQEbGa7K7QN2pQ/Wer19qMRqOuz74KCgurqCN+aLeeOK/yAaPHTXIzdmmhbhaxyEoIxMOl9by8ybbaWW09qK/hpKkz3Flf7LCWlxt0sQK7XVZWuXJVqg2i8m2hxfoN6TV0NxEl7AiE9sQ1T+rLRhd/Y0aO1U0vO1qBLVqS5KCWVGnpGTXHT56q9lW/Q/rf3fv1fjP9LcT78xc6wyPQucKXiD9wateu32ijGXIMz0ChSIJIOLIQAtE6aT0upyiDXnC9n7OER/Tzzox/1/WPTZk1+efOV5lMyiUtKoumbb7sXbstH3+y0j5xapw7rEdvyElDdA2PaDhxKofzvtURkT8h+yAQ0sUVLa8oI9vib4mMqiPDevRpoJXkO7PnuhYsTHTeXRWR3LZ/udN6F/q/710xTY2bWft67Oi6Tl27Y4tP44yfNM3NXMK+RuT3yDoIhHxxrZHzMi5JSrYjCQI9ENL5lcYFi5Y4CguvcnVYuSAyX+RvyDQIhHLSerL5bojkl3Nq3KxaJEWgVaijSvKKFDtjJ4vy5gbVTyDDIBDqiGuJnBeUzrfoVywSJNDiqPuc03nVjLKikSGDkFUQCHWl9bzcl3VlSqoNSRJo6WwyKXm5g7FKtKS5tydWVwgEk7jS5JVy2wxo3gq0wMSpcbXM/SnpXPgZZBEEgldaz8g92zpx8lS1rzrBA/DXNu2ExGXJDkZZ0epqOLIHAuE7cYU3v4iSX+RD3x4xBYd0wfkWYC20mP5mfG3hlSIjk6yOikwS+U9kDQTC9+IaI/elxooLcBE38+3acoOhgrHIIgpZAoHQnri+lPuCb96aZUVSBep1M4n05p3Jr0YJOwKBIGn9XuSG3Bc9cdlHDiRYoDRT4mbWVptMXKurfJSwIxD6EFeMEoMLo4djaCFQhv4Dh9TnnM7lXF3txeoKgdCXuFbLHrlxu6wyot+AeiRdIKnI4oX2woxZ79TSOSnjyJBtIqHIAAiE/qT1n3LL4AmH02mIiByADuegVbzcvVdD3pmzVYwrK5p60BdvPgKhb3G9q0RCoI7aEBdoaTeLlSmpnL0C6YfZdGwFIhD+Ia1nmrtVy04Oe/Z9bUFSBo8qYS8ru1PJXBX4NN50BMK/xBUqcluJJLHxH5tqkJyBBkrY6RL9QLzdCIT/imuMUglj2xfbrdRyB8ka3O3EzjyQcRV6BSIQgSGuP4l8q0TioKpClMMHLgOjh3syt2yzUqNlBkkVN4/feQFvMQIReOKioZHnlEoouIAcWISG9Ww49t0JE+Oq6pDIn/HmIhCBLa5BSiYW2i5Er0L/Z/T4ye6KikqubcCC5gvyj+ONRSAQJK4kJZMMdToI6RKG7vD+WGTRO9J7+MgxztXVPJGn8JYiEIh7pfW43MGRP4dKnbv17Iu7XH5C2/admtZvSK+hdl5MsqKzq5F4OxEIxMPEla5k4im++YOROiEg6et/dXXu/AXObhbHRZ7HW4lAIB4lridEPhD5p1IJyO5wGFLXrLeFdH4F24U6mxw8Ycp09/6D35iZVle3RDaI9BR5DG8jAoFojbw+UDopWa1Ww9S4WbUQgj6KLEpKSzk7WXxFI3Tw5iEQCDkrrjQ1EtTKlFQbxKBNqOozY9NmK3Mnizkiv8Zbh0Ag5IrrcbXEtW//QTOqC7VF7OjxdcXFN42MwsoU+SPeNAQCobS4ktRIWiazuSI+YY4LwvD96mrdhvQaRlkdFQnD24VAINSUV7xaSYwaq/aNeg2DJX3AiNgxdQWFVzhXV4txQRiBQHCJq6vIGTWSGU2x/XDxUkebdiFNkIn6DB4W4zl46LCZcb7VYpSwIxAIX4jrD0rN43rQcMn5Hy52oA2UeisrxpEhVGSRQP0t8eYgEAhfiutpkf1qJjwqt6bzLshLOVlRay3GbcC9KLJAIBBaEheVxG9RO/mRvEaPm1QH8UjjxY4vN27P3mlhlNXdQguUsCMQCE2uuHZxJMKD3xw202oBImoZYT36eNMzMmvoQjejrKgT+0gUWiAQCC2L6zGRwUrO5HpUE94t27Ksk6fNqG3bvhPuef1sthUVs1CPQCpsYZTVTpHhWF0hEAg9yev3zdtCbMmyutpU8cmKFHtot54B25D3hQ6dGt+ZPdeVk8N6XnVvocUQPP0IBELv8vrSBwm0vLzcUPnx8k/tnbp292uJhUdE/rj153A6Db74nEWyRJ7F045AIPxJXmNEbvgoqZZT8UHcrLdrqRBB75JqExzSFDt6XF3axn/YSkpYm9j+HLrqEIWnG4FA+POq64APk+yP5J87X5WUvNzeq9+ruhlISatFku6evfvMPlxR3csudGFHIBCBIK6nRFZpIOn+ezzK4W+Pmj5dlWobN3Gqu0PnrppYib362lDPoiVJjt1791lul5VVauXzEskVGYQnGYFABJq8nhNZKFKooYT8I3fulFdSxd2hw0fMVJm4fOUq+3vvz3dNnBrnHv7GqLoIcYX2Umi3xrbtO7aqxRQNvewe0c/bb8Br9TEjx9RNm/FW7ZwPFjjXpaXbdu/ZZ8k9c7a69NatSrfbXa6xz+SfzXfwIkV+hacXgUAEsrzoUnKK1sTVWmg1dD80spUn965VTzypCAQC8VN59RXJ0bu8/IiS5k7+T+HpRCAQiPuL6/HmS6mQl285JNIBTyQCgUC0Tl5lEAh7kUVfPIEIBAIhTV6hzb/6IRT151thKxCBQCAUktfzItNFvhK5BckowsnmQYzhqAhEIBAI9QT2dHOyvQ3xSILmnvXGk4RAIBD88prM3ZRXx2XrCzHeHoFAILQhMNo+nKPFi8oaqAIcgXlWCAQCoU15/Udz1WF68z2jQBQVjbWfidH2CAQCoS+BUaeNCJF1ASAwqv5bgvEgCAQC4R8C+5VIN5EJzcl9R/M5j97kRPfWjoisFJnR3EXkT/iGEQgEIjBk9qxItMi85oawFzTWRom2+pJExooE0+oR3xoCgUAg7hXZ75q3FWlVliiS2VzQcF3FrT26f5bcfBctqrmwBIJCIBC6jP8PMMqp2V3s/EMAAAAASUVORK5CYIIEAqG0uJLUSFoms7kiPmGOC8Lw/epq3Yb0GkZZHRUJw9uFQCDUlFe8WkmMGqv2jXoNgyV9wIjYMXUFhVc4V1eLcUEYgUBwiauryBk1khlNsf1w8VJHm3YhTZCJ+gweFuM5eOiwmXG+1WKUsCMQCF+I6w9KzeN60HDJ+R8udqANlHorK8aRIVRkkUD9LfHmIBAIX4rraZH9aiY8Krem8y7ISzlZUWstxm3AvSiyQCAQWhIXlcRvUTv5kbxGj5tUB/FI48WOLzduz95pYZTV3UILlLAjEAhNrrh2cSTCg98cNtNqASJqGWE9+njTMzJr6EI3o6yoE/tIFFogEAgti+sxkcFKzuR6VBPeLduyrJOnzaht274T7nn9bLYVFbNQj0AqbGGU1U6R4VhdIRAIPcnr983bQmzJsrraVPHJihR7aLeeAduQ94UOnRrfmT3XlZPDel51b6HFEDz9CARC7/L60gcJtLy83FD58fJP7Z26dvdriYVHRP649edwOg2++JxFskSexdOOQCD8SV5jRG74KKmWU/FB3Ky3a6kQQe+SahMc0hQ7elxd2sZ/2EpKWJvY/hy66hCFpxuBQPjzquuAD5Psj+SfO1+VlLzc3qvfq7oZSEmrRZLunr37zD5cUd3LLnRhRyAQgSCup0RWaSDp/ns8yuFvj5o+XZVqGzdxqrtD566aWIm9+tpQz6IlSY7de/dZbpeVVWrl8xLJFRmEJxmBQASavJ4TWShSqKGE/CN37pRXUsXdocNHzFSZuHzlKvt77893TZwa5x7+xqi6CHGF9lJot8a27Tu2qsUUDb3sHtHP22/Aa/UxI8fUTZvxVu2cDxY416Wl23bv2WfJPXO2uvTWrUq3212usc/kn8138CJFfoWnF4FABLK86FJyitbE1VpoNXQ/NLKVJ/euVU88qQgEAvFTefUVydG7vPyIkuZO/k/h6UQgEIj7i+vx5kupkJdvOSTSAU8kAoFAtE5eZRAIe5FFXzyBCAQCIU1eoc2/+iEU9edbYSsQgUAgFJLX8yLTRb4SuQXJKMLJ5kGM4agIRCAQCPUE9nRzsr0N8UiC5p71xpOEQCAQ/PKazN2UV8dl6wsx3h6BQCC0ITDaPpyjxYvKGqgCHIF5VggEAqFNef1Hc9VhevM9o0AUFY21n4nR9ggEAqEvgVGnjQiRdQEgMKr+W4LxIAgEAuEfAvuVSDeRCc3JfUfzOY/e5A==;" parent="1NNlO9BBZ_LvHmM51Dco-56" vertex="1">
          <mxGeometry y="8.120000000000005" width="37.22" height="40" as="geometry" />
        </mxCell>
        <mxCell id="1NNlO9BBZ_LvHmM51Dco-51" value="&lt;div&gt;&lt;b&gt;Radarr&lt;/b&gt;&lt;/div&gt;&lt;div&gt;Docker Compose&lt;br&gt;192.168.1.80:7879&lt;br&gt;&lt;/div&gt;" style="text;whiteSpace=wrap;html=1;" parent="1NNlO9BBZ_LvHmM51Dco-56" vertex="1">
          <mxGeometry x="40" width="110" height="60" as="geometry" />
        </mxCell>
        <mxCell id="1NNlO9BBZ_LvHmM51Dco-57" value="" style="group" parent="1" vertex="1" connectable="0">
          <mxGeometry x="418.79" y="785.76" width="150" height="60" as="geometry" />
        </mxCell>
        <mxCell id="uaDNKYk8u-UNjfNYOpH2-23" value="" style="shape=image;verticalLabelPosition=bottom;labelBackgroundColor=default;verticalAlign=top;imageAspect=0;image=https://res.cloudinary.com/razordarkamg/image/upload/v1621212884/SonarrV3_pufacd.png;" parent="1NNlO9BBZ_LvHmM51Dco-57" vertex="1">
          <mxGeometry y="10" width="40" height="40" as="geometry" />
        </mxCell>
        <mxCell id="1NNlO9BBZ_LvHmM51Dco-55" value="&lt;div&gt;&lt;b&gt;Sonarr&lt;/b&gt;&lt;/div&gt;&lt;div&gt;Docker Compose&lt;br&gt;192.168.1.80:8989&lt;br&gt;&lt;/div&gt;" style="text;whiteSpace=wrap;html=1;" parent="1NNlO9BBZ_LvHmM51Dco-57" vertex="1">
          <mxGeometry x="40" width="110" height="60" as="geometry" />
        </mxCell>
        <mxCell id="r6WHQdTkpfEPoyeX-RT7-5" value="" style="group" vertex="1" connectable="0" parent="1">
          <mxGeometry x="1030" y="20" width="270" height="30" as="geometry" />
        </mxCell>
        <mxCell id="1NNlO9BBZ_LvHmM51Dco-205" value="" style="fontColor=#0066CC;verticalAlign=top;verticalLabelPosition=bottom;labelPosition=center;align=center;html=1;outlineConnect=0;fillColor=#CCCCCC;strokeColor=#6881B3;gradientColor=none;gradientDirection=north;strokeWidth=2;shape=mxgraph.networks.modem;" parent="r6WHQdTkpfEPoyeX-RT7-5" vertex="1">
          <mxGeometry width="100" height="30" as="geometry" />
        </mxCell>
        <mxCell id="r6WHQdTkpfEPoyeX-RT7-1" value="&lt;b&gt;Comcast Modem&lt;/b&gt;&lt;div&gt;&lt;b&gt;Arris Surfboard&amp;nbsp;DOCSIS 3.&lt;/b&gt;1&lt;br&gt;&lt;div&gt;192.168.100.1&lt;/div&gt;&lt;/div&gt;" style="text;html=1;whiteSpace=wrap;strokeColor=none;fillColor=none;align=center;verticalAlign=middle;rounded=0;fontSize=10;" vertex="1" parent="r6WHQdTkpfEPoyeX-RT7-5">
          <mxGeometry x="90" width="180" height="30" as="geometry" />
        </mxCell>
        <mxCell id="r6WHQdTkpfEPoyeX-RT7-6" value="" style="group" vertex="1" connectable="0" parent="1">
          <mxGeometry x="1030" y="80" width="270" height="30" as="geometry" />
        </mxCell>
        <mxCell id="1NNlO9BBZ_LvHmM51Dco-206" value="" style="fontColor=#0066CC;verticalAlign=top;verticalLabelPosition=bottom;labelPosition=center;align=center;html=1;outlineConnect=0;fillColor=#CCCCCC;strokeColor=#6881B3;gradientColor=none;gradientDirection=north;strokeWidth=2;shape=mxgraph.networks.router;" parent="r6WHQdTkpfEPoyeX-RT7-6" vertex="1">
          <mxGeometry width="100" height="30" as="geometry" />
        </mxCell>
        <mxCell id="r6WHQdTkpfEPoyeX-RT7-3" value="&lt;div&gt;&lt;b&gt;Unifi Dream Machine Pro&lt;br&gt;&lt;/b&gt;&lt;div&gt;192.168.1.1&lt;/div&gt;&lt;/div&gt;" style="text;html=1;whiteSpace=wrap;strokeColor=none;fillColor=none;align=center;verticalAlign=middle;rounded=0;fontSize=10;" vertex="1" parent="r6WHQdTkpfEPoyeX-RT7-6">
          <mxGeometry x="90" width="180" height="30" as="geometry" />
        </mxCell>
        <mxCell id="r6WHQdTkpfEPoyeX-RT7-7" value="" style="group" vertex="1" connectable="0" parent="1">
          <mxGeometry x="1030" y="140" width="260" height="30" as="geometry" />
        </mxCell>
        <mxCell id="1NNlO9BBZ_LvHmM51Dco-207" value="" style="fontColor=#0066CC;verticalAlign=top;verticalLabelPosition=bottom;labelPosition=center;align=center;html=1;outlineConnect=0;fillColor=#CCCCCC;strokeColor=#6881B3;gradientColor=none;gradientDirection=north;strokeWidth=2;shape=mxgraph.networks.switch;" parent="r6WHQdTkpfEPoyeX-RT7-7" vertex="1">
          <mxGeometry width="100" height="30" as="geometry" />
        </mxCell>
        <mxCell id="r6WHQdTkpfEPoyeX-RT7-4" value="&lt;b&gt;Unifi USW 24-POE&lt;/b&gt;" style="text;html=1;whiteSpace=wrap;strokeColor=none;fillColor=none;align=center;verticalAlign=middle;rounded=0;fontSize=10;" vertex="1" parent="r6WHQdTkpfEPoyeX-RT7-7">
          <mxGeometry x="80" width="180" height="30" as="geometry" />
        </mxCell>
        <mxCell id="r6WHQdTkpfEPoyeX-RT7-9" value="" style="group" vertex="1" connectable="0" parent="1">
          <mxGeometry x="670" y="320" width="250" height="110" as="geometry" />
        </mxCell>
        <mxCell id="r6WHQdTkpfEPoyeX-RT7-10" value="" style="rounded=0;whiteSpace=wrap;html=1;fillColor=#f8cecc;strokeColor=#b85450;" vertex="1" parent="r6WHQdTkpfEPoyeX-RT7-9">
          <mxGeometry width="240" height="110" as="geometry" />
        </mxCell>
        <mxCell id="r6WHQdTkpfEPoyeX-RT7-11" value="" style="shape=image;verticalLabelPosition=bottom;labelBackgroundColor=default;verticalAlign=top;aspect=fixed;imageAspect=0;image=https://upload.wikimedia.org/wikipedia/en/c/cb/Raspberry_Pi_Logo.svg;" vertex="1" parent="r6WHQdTkpfEPoyeX-RT7-9">
          <mxGeometry x="10" y="30" width="46.98" height="60" as="geometry" />
        </mxCell>
        <mxCell id="r6WHQdTkpfEPoyeX-RT7-12" value="&lt;div&gt;&lt;span style=&quot;background-color: transparent; color: light-dark(rgb(0, 0, 0), rgb(255, 255, 255));&quot;&gt;&lt;b&gt;Github Runner&lt;/b&gt;&lt;/span&gt;&lt;/div&gt;&lt;div&gt;&lt;span style=&quot;background-color: transparent; color: light-dark(rgb(0, 0, 0), rgb(255, 255, 255));&quot;&gt;Raspberry Pi 5 8GB&lt;/span&gt;&lt;/div&gt;&lt;div&gt;Raspberry Pi OS Bookworm 12&lt;/div&gt;&lt;div style=&quot;&quot;&gt;192.168.1.93&lt;/div&gt;&lt;div style=&quot;&quot;&gt;&lt;span style=&quot;background-color: transparent; color: light-dark(rgb(0, 0, 0), rgb(255, 255, 255));&quot;&gt;Ethernet&lt;/span&gt;&lt;/div&gt;" style="text;html=1;align=left;verticalAlign=middle;whiteSpace=wrap;rounded=0;" vertex="1" parent="r6WHQdTkpfEPoyeX-RT7-9">
          <mxGeometry x="70" y="50" width="180" height="20" as="geometry" />
        </mxCell>
        <mxCell id="r6WHQdTkpfEPoyeX-RT7-14" value="" style="shape=image;html=1;verticalAlign=top;verticalLabelPosition=bottom;labelBackgroundColor=#ffffff;imageAspect=0;aspect=fixed;image=https://icons.diagrams.net/icon-cache1/Ionicons-2627/icon-social-github-1402.svg" vertex="1" parent="r6WHQdTkpfEPoyeX-RT7-9">
          <mxGeometry x="210" width="30" height="30" as="geometry" />
        </mxCell>
        <mxCell id="r6WHQdTkpfEPoyeX-RT7-22" value="" style="group" vertex="1" connectable="0" parent="1">
          <mxGeometry x="1230" y="510" width="250" height="110" as="geometry" />
        </mxCell>
        <mxCell id="r6WHQdTkpfEPoyeX-RT7-23" value="" style="rounded=0;whiteSpace=wrap;html=1;fillColor=#d5e8d4;strokeColor=#82b366;" vertex="1" parent="r6WHQdTkpfEPoyeX-RT7-22">
          <mxGeometry width="250.00000000000003" height="110.00000000000001" as="geometry" />
        </mxCell>
        <mxCell id="r6WHQdTkpfEPoyeX-RT7-24" value="" style="image;points=[];aspect=fixed;html=1;align=center;shadow=0;dashed=0;image=img/lib/allied_telesis/computer_and_terminals/Server_Desktop.svg;" vertex="1" parent="r6WHQdTkpfEPoyeX-RT7-22">
          <mxGeometry x="20.833333333333336" y="24.444444444444446" width="42.599999999999994" height="54" as="geometry" />
        </mxCell>
        <mxCell id="r6WHQdTkpfEPoyeX-RT7-25" value="&lt;div&gt;&lt;b&gt;&lt;font&gt;HASS (&lt;/font&gt;&lt;/b&gt;&lt;span style=&quot;background-color: transparent; color: light-dark(rgb(0, 0, 0), rgb(255, 255, 255));&quot;&gt;Samsung Ultrabook 15&quot;)&lt;/span&gt;&lt;/div&gt;&lt;div&gt;&lt;div style=&quot;&quot;&gt;&lt;span style=&quot;background-color: transparent;&quot;&gt;&lt;font&gt;Intel Core i7-8650U (16gb)&lt;/font&gt;&lt;/span&gt;&lt;/div&gt;&lt;div style=&quot;&quot;&gt;&lt;span style=&quot;background-color: transparent; color: light-dark(rgb(0, 0, 0), rgb(255, 255, 255));&quot;&gt;&lt;font&gt;Ubuntu Server 24.04.1&lt;/font&gt;&lt;/span&gt;&lt;/div&gt;&lt;div style=&quot;&quot;&gt;192.168.1.57:8123&lt;/div&gt;&lt;div style=&quot;&quot;&gt;&lt;span style=&quot;background-color: transparent; color: light-dark(rgb(0, 0, 0), rgb(255, 255, 255));&quot;&gt;&lt;font&gt;Ethernet&lt;/font&gt;&lt;/span&gt;&lt;/div&gt;&lt;/div&gt;" style="text;html=1;align=left;verticalAlign=middle;whiteSpace=wrap;rounded=0;" vertex="1" parent="r6WHQdTkpfEPoyeX-RT7-22">
          <mxGeometry x="72.91666666666667" y="42.77777777777778" width="177.08333333333334" height="36.66666666666667" as="geometry" />
        </mxCell>
        <mxCell id="r6WHQdTkpfEPoyeX-RT7-26" value="" style="shape=image;html=1;verticalAlign=top;verticalLabelPosition=bottom;labelBackgroundColor=#ffffff;imageAspect=0;aspect=fixed;image=https://icons.diagrams.net/icon-cache1/Operating_System__Flat_-2035/ubuntu-750.svg" vertex="1" parent="r6WHQdTkpfEPoyeX-RT7-22">
          <mxGeometry width="30" height="30" as="geometry" />
        </mxCell>
        <mxCell id="r6WHQdTkpfEPoyeX-RT7-35" value="" style="shape=image;verticalLabelPosition=bottom;labelBackgroundColor=default;verticalAlign=top;aspect=fixed;imageAspect=0;image=data:image/png,iVBORw0KGgoAAAANSUhEUgAAAeAAAAHgCAYAAAB91L6VAAAABGdBTUEAALGPC/xhBQAAACBjSFJNAAB6JgAAgIQAAPoAAACA6AAAdTAAAOpgAAA6mAAAF3CculE8AAAABmJLR0QA/wD/AP+gvaeTAAAAB3RJTUUH6AYNBA0CF0CpjwAAJqBJREFUeNrt3XmcXGWd7/Hv85yq3qqX7DshHSAhCxEIhJAgi3j1eh0GXC53RuS6AoKDjBvgQmxZR0RUNgVlFMVxXjpXAeUqM2zDMgTZAkl3FgLZ906nu6ureqk655k/IAgJJF1LV1ed83n/JRg63U911ad+z1lKAgAAAAAAAAAAAAAAAAAAAAAAAAAAAAAAAAAAAAAAAAAAwFAxLAFQvlpaeyakguDTHRn7nk7fNO/OBOM6s6Ym5QdeX/Da87fGyiU86zfFXe9oT7tGxO2ro+Luwfoa97OWwxt2sooAAQYwCFevSh23sc8tWZN2p63tdfVZl9/XiRnpsFqTnFGrhydX2ytbZieeZ3UBAgxgH5e+1HPZS2n31ZdSbnTgivu1rZGOStj2OQn7nRuPqruB1QYIMEB421LfeHKP+8YrvUFtKf6+6bUmfWKDuep78+r/idUHCDAQOS1rkic/12n+9ZnuYOJw/P3zG+3WuYng/3xnTuMTPBoAAQYi4csrUrfc2x5c1JN1w/ocrDZO7x7l3X33MfXn8qgABBgIrWs3u9HPb0//5YlOf3o5fV8nNppXFoyvP/5rh5o9PEoAAQZC5bqVvdP+ozP7YlvKNZbj9zez1vScNio+v2VWzRoeLYAAA6FwTVvq2Ps7gv96tc9Vl/P3ObXa9L93tF10LZcsAUPOsgTA0Pr+uoGj79sTPFXu8ZWkjf2u+v52t/TStq6FPHIAEzBQ0fH91639T2/odVWV9H2Pr7KZ94/xT75+dtNSHkWAAAPElwgDBBhAeONLhAECDBBfIgwQYADRii8RBggwQHyJMECAAUQrvkQYIMAA8SXCAAEGiG+04kuEAQIMEF8iDBBggPhGExEGCDBAfIkwQIAB4kuEARBggPgSYYAAA8SXCAMgwMBBXfdy6ph7dgZLiS8RBggwUML4/n5nsHQj8SXCAAEGiC8RBggwQHxBhAECDBBfIgwQYID4gggDBBggvkQYIMAA8SXCAAEGiC/xJcIAAQaILxEGCDBAfEGEAQIMEF8iDBBggPiCCAMEGCC+RBggwADxBREGCDCIL/ElwgABBogviDAIMEB8QYQBAgwQXxBhEGCA+IIIAwQYIL5EGCDAAPEFEQYIMEB8iTBAgAHiCyIMEGAQXxBhgAADxBdEGCDAIL4gwgABBogviDAIMEB8QYQBAgwQXxBhEGCA+IIIAwQYxBcgwiDAAPEFEQYIMIgviDBAgAHiCyIMEGAQXxBhgAADxBdEGAQYIL4gwgABBvEFiDAIMEB8QYQBAgziCxBhEGCA+IIIAwQYxBcgwiDAAPEFEQYIMIgvQIRBgEF8ASIMAgwQXxBhgACD+AJEGAQYIL4gwgABBvEFiDAIMEB8QYQBAgziCxBhEGAQX4AIAwQYxBcgwiDAIL4AEQYBBogvQIRBgEF8ASIMAgwQX4AIgwCD+AJEGAQYxBcgwgABBvEFiDAIMIgvQIQBAgziCxBhEGAQX4AIgwADxBcgwiDAIL4AEQYBBvEFQIRBgEF8ASIMAgziC4AIgwCD+AJEGAQYxBcAEQYBBvEFiDAIMIgvQIRBgEF8ARBhEGAQX4AIgwCD+AIgwiDAIL4AEQYBBvEFQIRBgEF8ASIMAgziC4AIgwATX1YDIMIgwCiBK1enjr93Z/Dkln4XZzUAIozyYVmC8Lp6dXoB8QUqz46BIP5Au/fYpW1dC1kNAowKjO89O/0niC9AhFGe2IIOcXw3E1+g4rEdTYBBfAEQYRBgEF+ACIMAg/gCIMIgwMQXABEGAQbxRRHUWaPmWqMRManRkxIxo9rXr2HoDaRU1qnbl/ZkpfW9TunAsWghNqnaZD440i6+am7iGVaDAIP4okgaPKPjG40WNlrNqLOaXms0Icd7mG3rl9b1Oa1OB1raHeiZbqcenygTYRBgEF+8xSE1RmeOsTp1hNWchJVX5Gdm1kmtqUCPdga6tz3Q5j5iTIRBgEF8I6rWMzpjtNVZY63mN9iSPRmdpGeTge7ZFeiPuwP1MhkTYRBgEN8oSFijj4yzumByTGOH+VHck3W6e7uvu7YF6ibEFYsTswgwiC8OoMYzOn+ip09MtGrwyuupl/Sdfr7N10+2+uoLeKyYhEGAQXxD4rSRVkumxTS5uryfctsHpGvXZ/TnDirMJAwCDOJbwcbGpSunx3X6yMr63JMHOwItWZdRe4bHkEkYBJj4Et8Ks7DR6IbDqzSuqjK//90Z6StrM3qyi2mYSRgEmPiiAnhG+vzkmC6a7MlW+DPMd9JtW7K6dYsv7u3BJAwCTHxRtuJW+u5hcf2v0eH6qO0HOwJ9cW1G/QzDTMIgwMQX5abOGt06M6bFTTaUP9/T3U4Xrc4oyeVKRBgEmPiiXIyIGf18VkyzEzbUP2dbKtAnV2bVmSXClYTt6PJkWQLii8LUeEY/nhn++ErS7ITVT4+Mqc7y3r2SbO138fs63JOXtnUtZDUIMIhvKMSNdMsRMR3bEJ2n0rx6q1tnxhXn1aOi7BgI4g+0e48RYQIM4hsKV02P6eQR0XsaLW4yapkW4xegAiP84G772BUrUsezGgSY+BLfinX2eE8fHutF9uf/3+M8fSTCP3+lYju6fHAgh/giDzPqjP5tTlw1XrSfQv2BdPaKAa1Mc1JWpeHsaCZg4kt8K06NZ3TTEcRXkqqt9L0j4qrhlaTisB1NgIkvKs6FkzxNryW+ex1ea3TeJI4HVyK2owkw8UXFmFZj9JmJHPfc1wWTPDXX8KakUidhzo4mwMQXZa+lOa4qnjX7qbLSkmamYCIMAkx8MQROHmG1qIkp750sbrKhvQ0nEQYBJr4YRhdOZuuZNSLCIMDEFyW1oNFqfgNPl8Gs03GsExEGASa+KJYLJjHZDXqtmIJDEWEuUSLAxBfDbnyVtIhjm4P27iaridWsQ6XjEiUCTHwx7D481hP33MjhRcVIZ4xmCg7LJMx2NAEmvhg2Z44hJrk6i3tEE2EQYOKLQsxKGO56lYfDa41m1rFuYYowx4QJMPFFSS1q5CmSr4WsXahwTJgAE1+UNiKcfMXa4S2TMNvRBJj4YsjFjDS/gW3UfC1oNJy8RoRBgIkvcjejzqqeguStwTOawXHg0EaYY8IEmPhiyBzGyVeFryGfkBRaHBMmwMQXQ2Y68ShYM29iQj8Jsx1NgIkviAdrCCJMgIkvwuAQbqdYhDUkwFGJMMeECTDxRdE0xIhHwWvISWyRwTFhAkx8UTR1lngUKkGAIzcJsx1NgIkvClYfcyxCwQFmDYkwCDDxRY6qDdNboWrZRYhshDkmTICJL/KWZXgrWCZgEaOKY8IEmPgib/2OeBSqjyWM/CTMdjQBJr7IWdpn+7RQvT5rQITZjibAxBc52jkQsAgF2j7ACAy2owkw8UXO8WANCl7DDGuAv07CbEcTYOKLQdnG9FZ4gPtZQ7w1wmxHE2Dii4NakyYehVrFGmIfbEcTYOKLg1pJPIoQYI6j4+0nYbajIxxg4ouDWZsOxHlY+esLpFd6eRODd45w1LejIxlg4ovBBmRZDwXO1/NJxxsYHFDUt6MjF2Dii1w83U1B8l87LgLG4CbhqG5HRyrAxBe5erSTLdR8PcbaIYcIR3E7OjIBJr7Ix/KeQBu5lCZnG/udWlPsHmDworgdHYkAX706veD3OwPii7w8sJuQ5Or+dtYMTMKRD/DeyXdLf0B8kZff7vTFDDx4TtLvd3H8F0zCkQ4w284ohvV9Tk91keDBeqIz0Ho+BgkFTsJRODErtAFm2xnFdPeOLIsw6LVi+kVxIhz27ehQBphtZxTbQx0Bd8YahLZUoEf3cPwXxRH27ejQBZhtZwwFJ+mWzUzBB3PTZo6Xo/iTcFi3o0MVYLadMZQe7Aj0fJLp7p08mwz0CNMvhijCYdyODk2A2XZGKabgb6/PymfE24/vpKvWZZl+MWTCuB0digAz+aJUVqacfr2Tk4z29S87fI6Rg0k4RyYsky/xRanUeEb3HRXXtBrDYui1u1797YsZpQMCjNIYX2Uz7x/jn3z97KalTMDD5MrW9AlMvii1Pt/p8rVZZemNsk76ytos8QWTcJQCfPXq9IL7OvzHOeaL4fB8T6DvbeSs6O9syGoZJ6ZhGIThmHBFBphtZ5SDO7f5uj/C94n+425fd23neDiGdxKu5EuUKu4gFvFFOamx0s9mxTW/IVofrb0sGegTq7Lq5ZRwlIFKPSZcUQEmvihHDZ7R3XPimlUXjZOy1qSdPtaaUTfxBREuSMW8beeEK5SrpO903qoBre0Nf5DWpJ0+tXKA+KLsVOKJWRXxlp3JF5Wg0TP651kxzasP53Z0WyrQp1ZmtYfTv8EkHI0JmPiiUnT7Tp9oy+rhEN6O8fHOQOe2EV9UxiRcKSdmlfUEfGVr+oR7OwIuNUJF8Yx02dSYPjnRC8XPc+c2Xzds5BacqCyTqk3mgyPt4qvmJp4hwEy+iJj3jrK6bnpMTbHKPDkr6TsteTUb6UutUNnKfTu6LF8ZmHwRFhOrja6dHtfipsqK8JNdgb72SkbbB3gMwSQcmQATX4TRB0ZZLWmOa3SZ/1Z3ZZ1u2OTrNzv4XF8wCUcqwMQXYVZnjT4+werCKZ4Strze+/b5Tr/YEej2Lb6SHOwFEY5WgIkvomJclfTEsdVl9T2d9Hy/drLdjJArt+3osrgMifgiSsoxdMQXUVBuH+Aw7AEmvgCAUimn64SHNcDEFwAQ1QgPW4CJLwAgyhEelgATXwBA1CNc8gATXwAAES5xgIkvAIAIlzjAxBcAQIRLHGDiCwAgwiUOMPEFABDhEgeY+AIAiHCJA0x8AQBEuMQBJr4AACJc4gBf0Zo6hvgCAMIS4Yfa7WMtbcm5ZR3gq9t6D32oM3iS+AIAwmLLgIs/0KFnrlred1hZBrhlbXLcv3f6ra/2uloeLgBAmKzrczUPJzPP37jJjSqrALc4Z1/YY55Zkw4SPEwAgDBamXaN/7m158UW54rSzqJ8kQ3LUg893RVM5eEBAITZ00k3ZdNL6T+WRYC/tDz5rT/vDk7lYQEARMGf2v0PfOml7suGNcAtbcm5f+5wSxyPBwAgIgIn/WmPubZlVc+8YQlwyyMu9mSXHuvIDM9nCgMAMFz2ZJxd2qWHCjkenPd/uHVk6nfLU24kDwMAIIqWJYMxO19M/bqkAf5GW/Lk/+gIzmD5AQBR9qeO4Oyvr0ieVpIAtzhnn+7Wvb0BCw8AiLbeQHo2qX/LZys65/+gfUX6jhU9bgTLDgCA9FLKjep4KX3zkAb4G8vSkx/Z43+K5QYA4K8e6vQ/d+mL6SlDFuBXA3f/7gHOegYA4M12Z2S3+cH/G5IAL2lNfeDxPf67WGYAAPb3aGew4Jsrk6cWPcAvpIKfZrnjBgAAbysTSK3d5udFDfDXVvR84tluN4nlBQDgnS1NBode3tpzTtEC/FyPu5HhFwCAA3OSliV1Y1EC/LW21Gde6ine5x8CABBmy3qCcVe0ps8uOMDLuoLrWE4AAAZvRdpdW1CAv7Ey/ffLUm4sSwkAwOA92+0f1tLWtTDvAK/scddw7BcAgNxknLSmL3ZLXgFuae05+pmk38wyAgCQu6c6/flXtfUdkXOA1/frpgwfuAAAQF56A2n9gH9rTgH+4iZX+0wyWMzyAQCQv6e7gvdc/LKrHnSA+zvS39id4Z7PAAAUoj3jvGxv+rJBB3htr/s0ywYAQOHWpd15gwrwOUv7Z7emgoksGQAAhVuRCqZ8bOn+J2PtF2Bblb3K59ojAACKIuukeHX22wcN8Nq0/36WCwCA4nk17T54wAB/qbXn9HV9SrBUAAAUz8u9rvHyfT4r+C0B3jOgy1gmAACKr73PfPXN/xx78z+s63UnskQAUFoJa9RcZzQiJjVYqT5mVPv6eNQbSD1Zp2Qg7clI63udUgEn6lSiV/qCk942wFe0Jufcud3Vs0QAMHQaPKMFjUYLm6xm1FlNrzEaX5Xb19g+IL3a6/Ryb6CnugI90+2U5OzZsrcmrcZrX+mb8fXData8JcAdgf1S4HxWCACKbGq10ZljrU4dYTU7YeWZwr7ehCppQpXRoiZPn5jgyXdSayrQo52B7m0PtKmPGJcj30lb0/4XJV34lgBv7dd7WB4AKI5az+iMMVYfGmN1bIOVGcK/yzPSvHqrefVWF0+RnksGuqc90B/aA/UyGZeVrX36H3v/9xsBXpsKDmFpAKAwCWv0kXFWF0yOaWy89H+/kXRcg9VxDVZfPsTp7u2+7toWqJsQl4W1vf60vf/bStKS1tQHdmWcx9IAQH5qPKNLpsT0+Py4vjlteOK7r5Exo4unxPTIsXFdPCWmGs/wQA2znQPyLl2VPO2NALdn9XcsCwDk572jrP48L67PT/FUX4aRa/CMLp7i6f8fFdd7RvI5O8OtJ2PPeSPAuzPBApYEAHIzrkr68cy4bpsR16Tq8p8up9QY/XhmXD+aGS+LCT2qdg+4E94I8KZ+HcqSAMDgLWw0+t3c6oqcKE8fafWHeVU6aQTT8HDY2q9mSbLfX+dGbOpztSwJABycZ6RLpsT081lVGldVuT/HqLjRT2a+dmyYQ8Oltb4vSNza6upte6r39AwnxwHAQVVZ6cYjXjvWa0MQLc9IF0/xdPMRcVUzDJdMJpB2mP5TbE8QLGY5AODA6qzR7TPj+sCo8JXqvaOsfnpklRoYhUumJwjebVPOHMVSAMA7GxEz+vWcuBY3hXdMPKHR6JezYxoRI8Kl0DkQHG27BoKpLAUAvL1az+gnR8Y0KxH+MM1OWN0xM6ZaJuEhlwzcoTbpm1EsBQDsL26km4+I6V310TlAenSD1W0z4opzTHhIpX0z0nb7LsFSAMD+rp4e08kRvFRncZPRt6fF+AUYQl1ZNdhkVlUsBQC81dnjPX1obHTv0PvRcZ4+Oo47FA+Vbj+otr2B2GgAgDeZUWf0zanE51vTYppVx/HgodAfyNpM4FhdAHhdjWd084w4H1wgqfr1655rGNOKrs93xg5wEw4AeMOFkzw11xDfvQ6rNbpgEseDi23AGVn6CwCvmVZj9JmJbD3v63zelBSdkzj+CwB7tTTHVcWr4n7iVlrSzBRcbPyqAYCkU0ZYLWpiynsni5tsqO8ERoABYJh8bjJbzwdz0RTWiAADQBGd0Gg0v4GXw4M5vsHqONaJAANAsXCW7+CxU0CAAaAoxldJJ3Jsc9BOarKaWM06EGAAKNCHx3rinhs5RMNIZ4xmCibAAFCgM8cQk1ydNZY1I8AAUIBZCaPptYy/uTq81mgm94gmwACQr0WNvATmi+PmBBgA8raQiOS/drx5IcAAkI+YkeY3sI2arxOajGIsHwEGgFzNqLOq5/TnvCWs0REcBybAAJCrwzj5qvA15BOSCDAA5Go68ShYM29iCDAAEA/WkAADQAU4hNspFmENCTABBoAcNXAKb+FryElsBBgAclVniUehEgSYAANArupjjkUoOMCsIQEGgBxVG6a3QtWyi0CAASBXGYa3gvU5FpEAA0CO+gPiUaieLBMwAQaAHKV94lHwGvImhgADQK52ZQIWoeAJmAATYADI0bYB1qBQm/pZAwIMADna2s/0Vqj1vawhAQaAHK0lHgV7pY81JMAAkKMVKY4BF2odASbAAJDPBDxAg/PW6zutTrOABBgAcpQJpBeZgvP2bNKJE8kJMADk5YlOCpKvp7pZOwIMAHl6vItjmHkHmLUjwACQ14ufkc4dz0tgPjb0O7WxfU+AASCf+F43PaYPjfVYjDzcu8sX8y8BBgDiW0JO0r3tTL8EGAByjO+1xLcgT3c7beL636KIsQQAmHwxWLdvybIITMAAQHxLqS0V6L+62H4mwABAfEvqli2cfEWAAWCQ8eWYb3E8nwz0UAfTbzFxDBgAky8OKOukb6/LMv0yAQMA8S2lX2z3tTJNfgkwABwkvmw7F8/mPqebN/ksxBBgCxoAky/eVsZJX34lq1TA9MsEDADEt2Su35DVC0lOvCLAAHCA+LLtXFwPdAT6xXa2nocSW9Ah0egZTa8zGh2Taq1RIiY1vP5alPSlVFbqDZzaM9K6Xqduny0lhCu+Hya+RfNcMtBX12Y465kAY18jYkYnNBqd0OTpyDppeo3RqLjJ6Wvszkiv9gVanXZa2hXoL91OnVmebiC+Ubcm7XTBqqz62HkmwHhNc43RWWM9nTrCamadkTWFfb3RcWl03Or4Bunj4z0FTlqVDvToHqd72n2t52brIL6Rs6Hf6TOrBtTNzjMBjrqENfrQWKMzx3p6V/3QHq63RpqdsJqdkC6a4mlZMtC97YHu2RVwBiSIbwS0pgJ9dlVGuzOsBQGOsHrP6GPjrc6b5KkpZoblezi6weroBqsvT3X6lx2BfrLVVxdb1CiT+HK2c3Et7Xa6aHVWPUy+BDiq6qzRhZM9nTvRqs6asvie6j2j8yd5OmeC1S+2BfrxVl+9nMCFYZ58iW/x3L3D13UbsspwzJcAR9VpI61apsU0sdqU5feXeP3NwYfHerphY1b3tvNWGUy+lazHd7ri1azu3015h+13miUYXuOrpDuPjOv2mfGyje++3+93D4/pJ0fGNb6Kxw9MvpXo2WSgM5dniC8Bjq5FTUa/O6pa7x5ReQ/DKSOs7ptXpZNH8CuE0ky+nHBVuK6s09Xrs/p4W0abuNJh2LEFPRyLbqRLpsR0/mRPpoJ/jpExoztmxnX7Vl83bc6KQ8Ng8i1PA4H0m12+friJkykJcIRVWel7h8f1/lHhmBytkS6c7GlGndEXX85w8T6KPvkS3/z1+k6/2RXozq1ZbR9gPQhwhDV4RnccGdP8hvBt254+0urOWXF9blVWSUZhMPkOq1d6X7uhzm93BurI8HwkwBE3Km5016y4ZtaZ0P6MxzdY/WpOXJ9cmeFJj4LjG4ZjvplA+sLLGW3td3rfKE/vG211RO3QvAZs7Hd6dE+ge9oDrehhK6oSmAkPdvNKOcQS1uiXs2OaWx+NE5aW9wQ6ty2rNHfQekdrFlaX1fczY2l/2cQ3LNvOe+P70J63xnBytdH8BqtjG4yObbCaXmNUleNLQ18gretzWpMOtLTL6anuQFv7eb4xAeMt4la6ZWZcc+tNZH7mo+qtbp0Z0/mrM1zcD+K7jy39Tlv6fd3X/tefe3yV0bRqaVK1Va11qvOM6j0jJynlu9c+0cyXOrJO63qdtg048f6WAOMg/ml6TIubTOR+7sVNVtc0x3TpK1l+CUB8DyBw0rZ+p239ksQNbiL1e88SDJ2Pjfd0xpjonkRy1lhPZ4/nJBpEK76XrB18fEGAMQRm1hldfigbDFccGtOshOEXApGJ74MdxBcEeNjUekY3z4irhtVVtZV+cERcNR4RRrjj+4WXiS8I8LD7/GRP02oIzl7NNUYXTmIrGuGefNl2BgEeZofXGn1qIrHZ12cnejqsljclYNsZIMBD5IrmuOJ0Zj9xK327OSaWhvgSX4AAF91pI61ObCQx72RBo9VJfHoS8SW+AAEutgs4znlQ/zCZNSK+xBcgwEV0YuNrt5XDgR3TYLWgkXUivsQX4JWwSM6fzDW/g/U5dgqIb4XGl0uNQIDLzKRqoxOZ6gZtUZPVxGrWgfhW3uTLpUYgwGXmrLFWlnOvcnphPnMMUzDxraz4MvmCAJehvx1NTHJFgIkv8QUBRkFmJ6ymc4OJnB1WazSrjnUjvuUdX475ggCXsSh+1GCxLGzi14/4lvfkyzFfEOByjggnX7F2YNsZIMClFTPSsdz5Km8Lmgy37SS+xBcEGLmbWWeV4PTnvCWs0eEcBya+ZRRfjvmCAFcIPt2nCGvIhyYT3zKafDnmCwJcIabzmb8Fa+ZNDPEtk/gy+YIAV1I82D4lwMSX+AJ54gbGBTikijUo1FRuSUl8hzG+X3iZbWcwAVek+hjTW8Fr6LGGxHf4Jl/iCwJcoeo4A7pgCQJMfIcpvmw7gwBX9ATsWATWkPgSXyAvHAMuQLVheitUDWtIfEsYX475ggk4JPod0xtrSHwrafIlviDAIZHymd4KlWYNiW+J4su2MwhwqALM9FZwgAPWkPgSX0QTx4ALDjATXCF2DxBg4jt08eWYL5iAQ2pTP2tQqM39BJj4Dt3kS3xBgENqXS/xKPhNTB9rQHyHJr5sO6PcsQVdgFcJcMHWMwGXBbadASbgygpwH/Eo1Es9vFCWA+ILEOCKsiodqJczofOW9J3W8yYGRYovx3xBgCP2pH8uSUDytSzpxFVIKNbkyzFfEOCIeTrJkz5f/9nJ2oHJFwQYeXqyixEuX4/yogkmXxBg5Ku1J9AGzuTN2fo+p42sGwqML5MvCHCEOUn37fJZiBwdWmN07gSPhUBe8WXbGQQYkqTf7QrELJcbI+mb02JEGHnFl21nEGBIkrb0Oz3dTYLzjfA544kwBhdfjvmCAGM/d2zNsgh5RnhJM5MwBjf5su0MAoz9PNEZaDl3dSpoEibCOFB8mXxBgPGOfrSVk7GIMIgvQIBL7qGOQM9zY46CI8wxYeyNL8d8QYAxKE7SknVZZTgfq6AIc0wYHPMFAUbO1qSd7t7OVnQxJmEiHO34MvmCACNnN23ytZlP+SlKhNmOjl582XYGAUbeUoHTJWuzyvAaUnCE2Y6O3uTLtjMIMAqyvCfQ9Ru5NrhYkzARjkZ8mXxBgFEUv9ju68+8oBQtwmxHhze+bDuDAKOonKSvrs3oGS5NKkqE2Y4O7+TLtjMIMIquP5AuWJVVW4oXmGJNwkQ4XPFl8gUBxpDp8Z0uWJ3ROs6MLlqE2Y6u/Piy7QwCjJLYMSCdvSKjF9iOLkqE2Y6u/MmXbWcQYJRMV9bpk6uyeqyTF55iTcJEuDLjy+QLEOCS6/WdLlyT0V3bfbEhXZwIsx1dOfFl2xkgwMP+QnTN+qwuWp1RV5YMFxphtqMrZ/Jl2xkgwGXhoT2Bzlqe0V+6eVFiEmbyBQgwSmpLv9PH2zK6ZE1G7RnWg0mYyRcgwCipP3UEev+yAd213Vc/r1VMwky+AAFG6SR9p2vWZ3XKCwO6eXNWSZ/jw0zCTL4AAUbJdGScbt7s6/QXMvrOhqxWpwkxkzCTLxC616oJD3bz6l4BZiWMzhrj6dSRVs01puhf30lqSwV6eE+gGmt03qTKj5eTdOW6rH61wy+7723NwupQx5fJFzi4GEtQGVamnFamsrpugzS+SlrY6Glhk9GRdUbNtUZ1Nrco9wXSqlSgF1NOL/U4/aXb146Bv/7/qcDpH6dU9q/H3u1oSWUZYeILMAEzAYfAhCppeq3RiJhRQ8woYaWE91qG+gOnLl/q9aXNfU6bBwLtHDj417xoilfxES7XSThsEzDxBZiAI2v7gLR9wL2em+K4bbOvgUC6dGo4JmFrpF9uZxIeivhywhWQO07CwgH9dKuv6zdmK/7n4N7RQxtfTrgCCDCIMBEmvgABBhEmwsQXAAEGESbCxBcgwCDCRJj4AgQYIMIgvgABBhEmwsQXIMAAESa+xBcgwCDCRJj4AgQYIMLEFwABBhEmwsQXIMAgwkSY+AIgwCDCRJj4AgQYRJgIE1+AAANEOOoRJr4AAUbIIvyDzeGJ8DnjwxvhL7xMfAECjFC5bXN4JuElzeGdhB/aQ3wBAoxQTsJsRwMAAQYRJsIACDCIMBEGQIABIkyEARBgEGEiDIAAA0SYCAMgwCDCRBgAAQaIMBEGQIBBhIkwAAIMEGEAIMAgwkQYAAEGiDAAAgwQYSIMgACDCBNhAAQYIMJEGAABBhEmwgAqXIwlQCVEWJIunVrZv657IwwATMCoqAj/YHN4JmEAIMCoGLdtDs92NAAQYFTcJByGCAMAAQYRBgACDBBhAAQYIMIAQIABIgyAAANEGAAIMIgwEQZAgAEiDAAEGEQYAAgwQIQBgACDCAPAMAWY+9IizBEOwwc4AAgfI8nWesaxFAirsHyAA4BwqfOMs7XWEWCEfhImwgDKKsBWga3zDK9MiESE2Y4GUC5qPWXtmLjpZCkQBWxHAygXY+Km046KmU0sBaI0CRNhAMNtVEyb7IiYW8FSIGoRZjsawHBqjJsVtsnqVywFoobtaADDGmAv+KWRpKMf68lsHwhiLAmi5rOTPF06lV/9GUv7+WUASmR8lc2+eHJ93ErSjFr3CkuCKGI7GkDJ3/DWurXS67einFZrfsySIKrYjgZQSofWxH/0RoDr5iRumljF9cCI9iRMhAEMtQlVNrthZfWtbwS4xZjgmAbzMEuDqEeY7WgAQ+nYRvPwb882/hsBlqSJxn66wRO3pUSksR0NYKjUx4ybGrfn7f3nNwJ8zdF1WxY1mcdZIjAJMwkDKL6TGvVYy5zajfsFWJKaE+4jE6osrzxgEmYSBlBEY+LGHxHYv3/zv3tLgFtmNrafNtL+kKUCODELQPGcPsq78QfHJba9+d+Zt/uDZ/wlueWZbjeJJQOki6Z4+scp4b5ZBzfiAIbO/Ea79f4F9ZP3/ff27f7wCfWxRVyWBLyG7WgA+RoXl398InbK2/1/bxvgb86u3fA/R5nPVhtOigYkTswCkLsq4/TeMfazLXNq1g46wJJ03dz6uz46PnZlzLCIAJMwgFx4RvrQOO+7N86p//k7/Rl7oC/wvbmJb505zvtnS4QBJmEAg2Ik/c1Y72c/PKr+0gP9OXuwL3TrUYnP/N342HeqiDDAJAzggGJGOmOMd/vt8xKfPtiftYP5gjfOrbv8o+Pt5fUeB4UBJmEAb6feM+7scfr6HUcnPjfYSXnQWl5OL3x0l//vq9KugaUGwvN5wlyGBBRmeq1JnzRaf3P9kQ2PDPa/yXlj+dZWV/90f88Dj3S6RZmARQfCcJ0wAQbyEzfSySO8pfMSde+77EiTzOW/zfvI7pK2vg8+1ZX55fKUG8lDACJc2REmwEDuZtWZzvkJ+39veFfiD/n89wWfWnX5itRFy1NuyXPJYDwPB6KskrejCTCQU3i7j27UTd+fU79EJv9zo4p2bvPX2nrPXd8bfOX5nmBuV8ZZHiIwCRNgICwaPLljGmzr5Frvxu/Pqf1ZMb5m0S8uurXV1a93qYt2DLiz1veZeev6ggTHikGECTBQSWJGOrTapqbVmBVj4v59I2MNN7XMMT3F/DuG/OrelnWuZiCdWtwXmHf3OXNY1vcbMzKNvjM1PMQIq3MneMtPaDQdlfL9/sOa7Ck8aogq54JM3JruKs92xuXW1Vn3RG1f4vGW40x6KP/e/waSnzXjlPbRsQAAACV0RVh0ZGF0ZTpjcmVhdGUAMjAyNC0wNi0xM1QwNDoxMzowMiswMDowMB4QniwAAAAldEVYdGRhdGU6bW9kaWZ5ADIwMjQtMDYtMTNUMDQ6MTM6MDIrMDA6MDBvTSaQAAAAAElFTkSuQmCC;" vertex="1" parent="r6WHQdTkpfEPoyeX-RT7-22">
          <mxGeometry x="228.44" y="2.8799999999999955" width="21.56" height="21.56" as="geometry" />
        </mxCell>
        <mxCell id="r6WHQdTkpfEPoyeX-RT7-27" value="" style="group" vertex="1" connectable="0" parent="1">
          <mxGeometry x="950" y="510" width="250" height="110" as="geometry" />
        </mxCell>
        <mxCell id="r6WHQdTkpfEPoyeX-RT7-28" value="" style="rounded=0;whiteSpace=wrap;html=1;fillColor=#d5e8d4;strokeColor=#82b366;" vertex="1" parent="r6WHQdTkpfEPoyeX-RT7-27">
          <mxGeometry width="250.00000000000003" height="110.00000000000001" as="geometry" />
        </mxCell>
        <mxCell id="r6WHQdTkpfEPoyeX-RT7-29" value="" style="image;points=[];aspect=fixed;html=1;align=center;shadow=0;dashed=0;image=img/lib/allied_telesis/computer_and_terminals/Server_Desktop.svg;" vertex="1" parent="r6WHQdTkpfEPoyeX-RT7-27">
          <mxGeometry x="20.833333333333336" y="24.444444444444446" width="42.599999999999994" height="54" as="geometry" />
        </mxCell>
        <mxCell id="r6WHQdTkpfEPoyeX-RT7-30" value="&lt;div&gt;&lt;span style=&quot;background-color: transparent; color: light-dark(rgb(0, 0, 0), rgb(255, 255, 255));&quot;&gt;&lt;b&gt;Jack&amp;nbsp;&lt;/b&gt;&lt;/span&gt;&lt;/div&gt;&lt;div&gt;&lt;span style=&quot;background-color: transparent; color: light-dark(rgb(0, 0, 0), rgb(255, 255, 255));&quot;&gt;&lt;b&gt;Automatic Ripping Machine&amp;nbsp;&lt;/b&gt;&lt;/span&gt;&lt;/div&gt;&lt;div&gt;&lt;span style=&quot;background-color: transparent; color: light-dark(rgb(0, 0, 0), rgb(255, 255, 255));&quot;&gt;Intel&amp;nbsp;&lt;/span&gt;&lt;/div&gt;&lt;div&gt;&lt;div style=&quot;&quot;&gt;&lt;span style=&quot;background-color: transparent; color: light-dark(rgb(0, 0, 0), rgb(255, 255, 255));&quot;&gt;&lt;font&gt;Ubuntu Server 24.04.1&lt;/font&gt;&lt;/span&gt;&lt;/div&gt;&lt;div style=&quot;&quot;&gt;&lt;span style=&quot;background-color: transparent; color: light-dark(rgb(0, 0, 0), rgb(255, 255, 255));&quot;&gt;&lt;font&gt;192.168.1.202&lt;/font&gt;&lt;/span&gt;&lt;/div&gt;&lt;div style=&quot;&quot;&gt;&lt;span style=&quot;background-color: transparent; color: light-dark(rgb(0, 0, 0), rgb(255, 255, 255));&quot;&gt;&lt;font&gt;Ethernet&lt;/font&gt;&lt;/span&gt;&lt;/div&gt;&lt;/div&gt;" style="text;html=1;align=left;verticalAlign=middle;whiteSpace=wrap;rounded=0;" vertex="1" parent="r6WHQdTkpfEPoyeX-RT7-27">
          <mxGeometry x="72.91666666666667" y="42.77777777777778" width="177.08333333333334" height="36.66666666666667" as="geometry" />
        </mxCell>
        <mxCell id="r6WHQdTkpfEPoyeX-RT7-31" value="" style="shape=image;html=1;verticalAlign=top;verticalLabelPosition=bottom;labelBackgroundColor=#ffffff;imageAspect=0;aspect=fixed;image=https://icons.diagrams.net/icon-cache1/Operating_System__Flat_-2035/ubuntu-750.svg" vertex="1" parent="r6WHQdTkpfEPoyeX-RT7-27">
          <mxGeometry width="30" height="30" as="geometry" />
        </mxCell>
        <mxCell id="r6WHQdTkpfEPoyeX-RT7-36" value="" style="rounded=0;whiteSpace=wrap;html=1;fillColor=#dae8fc;strokeColor=#6c8ebf;" vertex="1" parent="1">
          <mxGeometry x="670" y="650.76" width="250" height="230" as="geometry" />
        </mxCell>
        <mxCell id="r6WHQdTkpfEPoyeX-RT7-37" value="&lt;span style=&quot;color: rgba(0, 0, 0, 0); font-family: monospace; font-size: 0px; text-align: start; background-color: rgb(236, 236, 236);&quot;&gt;%3CmxGraphModel%3E%3Croot%3E%3CmxCell%20id%3D%220%22%2F%3E%3CmxCell%20id%3D%221%22%20parent%3D%220%22%2F%3E%3CmxCell%20id%3D%222%22%20value%3D%22%22%20style%3D%22rounded%3D0%3BwhiteSpace%3Dwrap%3Bhtml%3D1%3BfillColor%3D%23dae8fc%3BstrokeColor%3D%236c8ebf%3B%22%20vertex%3D%221%22%20parent%3D%221%22%3E%3CmxGeometry%20x%3D%2230%22%20y%3D%22130%22%20width%3D%22450%22%20height%3D%22531.5%22%20as%3D%22geometry%22%2F%3E%3C%2FmxCell%3E%3C%2Froot%3E%3C%2FmxGraphModel%3E&lt;/span&gt;" style="shape=image;html=1;verticalAlign=top;verticalLabelPosition=bottom;labelBackgroundColor=#ffffff;imageAspect=0;aspect=fixed;image=https://cdn1.iconfinder.com/data/icons/unicons-line-vol-3/24/docker-128.png" vertex="1" parent="1">
          <mxGeometry x="680" y="650" width="28.88" height="28.88" as="geometry" />
        </mxCell>
        <mxCell id="r6WHQdTkpfEPoyeX-RT7-42" value="" style="group" vertex="1" connectable="0" parent="1">
          <mxGeometry x="710" y="680" width="145.12" height="35" as="geometry" />
        </mxCell>
        <mxCell id="uaDNKYk8u-UNjfNYOpH2-10" value="" style="shape=image;html=1;verticalAlign=top;verticalLabelPosition=bottom;labelBackgroundColor=#ffffff;imageAspect=0;aspect=fixed;image=https://pbs.twimg.com/profile_images/1598093922668093450/Q2ME6czo_400x400.png;" parent="r6WHQdTkpfEPoyeX-RT7-42" vertex="1">
          <mxGeometry width="35" height="35" as="geometry" />
        </mxCell>
        <mxCell id="r6WHQdTkpfEPoyeX-RT7-41" value="&lt;b&gt;Change Detection&lt;/b&gt;&lt;div&gt;Docker Compose&lt;/div&gt;&lt;div&gt;192.168.1.201:5000&lt;/div&gt;" style="text;html=1;whiteSpace=wrap;strokeColor=none;fillColor=none;align=center;verticalAlign=middle;rounded=0;" vertex="1" parent="r6WHQdTkpfEPoyeX-RT7-42">
          <mxGeometry x="61.120000000000005" y="2.5" width="84" height="30" as="geometry" />
        </mxCell>
        <mxCell id="uaDNKYk8u-UNjfNYOpH2-9" value="Server" style="image;aspect=fixed;html=1;points=[];align=center;fontSize=12;image=img/lib/azure2/databases/Azure_Database_MySQL_Server.svg;" parent="1" vertex="1">
          <mxGeometry x="60" y="380" width="30" height="40" as="geometry" />
        </mxCell>
        <mxCell id="uaDNKYk8u-UNjfNYOpH2-11" value="Calibre" style="shape=image;html=1;verticalAlign=top;verticalLabelPosition=bottom;labelBackgroundColor=#ffffff;imageAspect=0;aspect=fixed;image=https://upload.wikimedia.org/wikipedia/commons/f/f7/Calibre_logo.png;" parent="1" vertex="1">
          <mxGeometry x="60" y="290" width="40" height="40" as="geometry" />
        </mxCell>
        <mxCell id="r6WHQdTkpfEPoyeX-RT7-46" value="" style="group" vertex="1" connectable="0" parent="1">
          <mxGeometry x="708.88" y="740.76" width="131.12" height="40" as="geometry" />
        </mxCell>
        <mxCell id="uaDNKYk8u-UNjfNYOpH2-5" value="" style="shape=image;verticalLabelPosition=bottom;labelBackgroundColor=default;verticalAlign=top;imageAspect=0;image=https://upload.wikimedia.org/wikipedia/commons/c/c3/Python-logo-notext.svg;" parent="r6WHQdTkpfEPoyeX-RT7-46" vertex="1">
          <mxGeometry width="40" height="40" as="geometry" />
        </mxCell>
        <mxCell id="r6WHQdTkpfEPoyeX-RT7-45" value="&lt;b&gt;secrets&lt;/b&gt;&lt;div&gt;Docker Compose&lt;/div&gt;&lt;div&gt;192.168.1.201:5001&lt;/div&gt;" style="text;html=1;whiteSpace=wrap;strokeColor=none;fillColor=none;align=center;verticalAlign=middle;rounded=0;" vertex="1" parent="r6WHQdTkpfEPoyeX-RT7-46">
          <mxGeometry x="71.12" y="5" width="60" height="30" as="geometry" />
        </mxCell>
        <mxCell id="r6WHQdTkpfEPoyeX-RT7-47" value="" style="endArrow=classic;html=1;rounded=0;entryX=0.5;entryY=0;entryDx=0;entryDy=0;entryPerimeter=0;strokeColor=#1040FF;" edge="1" parent="1" source="1NNlO9BBZ_LvHmM51Dco-205" target="1NNlO9BBZ_LvHmM51Dco-206">
          <mxGeometry width="50" height="50" relative="1" as="geometry">
            <mxPoint x="500" y="400" as="sourcePoint" />
            <mxPoint x="1080" y="120" as="targetPoint" />
          </mxGeometry>
        </mxCell>
        <mxCell id="r6WHQdTkpfEPoyeX-RT7-48" value="" style="endArrow=classic;html=1;rounded=0;exitX=0;exitY=0.5;exitDx=0;exitDy=0;exitPerimeter=0;entryX=0.471;entryY=0.017;entryDx=0;entryDy=0;entryPerimeter=0;" edge="1" parent="1" source="1NNlO9BBZ_LvHmM51Dco-207" target="r6WHQdTkpfEPoyeX-RT7-10">
          <mxGeometry width="50" height="50" relative="1" as="geometry">
            <mxPoint x="850" y="100" as="sourcePoint" />
            <mxPoint x="770" y="160" as="targetPoint" />
            <Array as="points">
              <mxPoint x="783" y="155" />
            </Array>
          </mxGeometry>
        </mxCell>
      </root>
    </mxGraphModel>
  </diagram>
</mxfile>
